<svg width="70" height="70" viewBox="0 0 70 70" fill="none" xmlns="http://www.w3.org/2000/svg">
<g clip-path="url(#clip0_12_19923)">
<path d="M3.56592 47.1113C3.56592 54.4098 3.56592 66.5021 3.56592 66.7862C3.56592 67.791 4.38008 68.6054 5.38496 68.6054H7.81035C8.81496 68.6054 9.62939 67.791 9.62939 66.7862C9.62939 65.442 9.62939 54.0908 9.62939 47.1113H3.56592Z" fill="#C6A875"/>
<path d="M8.11182 68.5784C8.11236 68.5782 8.11291 68.5782 8.11346 68.5781C7.2535 68.4335 6.59779 67.6872 6.59779 66.7861C6.59779 66.5019 6.59779 54.4098 6.59779 47.1112H3.56592C3.56592 54.4097 3.56592 66.502 3.56592 66.7861C3.56592 67.7907 4.38008 68.6053 5.38496 68.6053C7.92219 68.6054 7.87721 68.6177 8.11182 68.5784Z" fill="#B5915D"/>
<path d="M11.449 25.0708V45.7383C11.449 46.7431 10.6349 47.5575 9.62986 47.5575H3.56625C2.56137 47.5575 1.74707 46.7431 1.74707 45.7383V22.3927C1.74707 21.388 2.56123 20.5736 3.56625 20.5736H9.62986C10.6347 20.5736 11.449 21.388 11.449 22.3927V25.0708Z" fill="#AA9A79"/>
<path d="M6.59799 45.7383V22.3927C6.59799 21.388 7.41215 20.5736 8.41717 20.5736H3.56625C2.56137 20.5736 1.74707 21.388 1.74707 22.3927V45.7382C1.74707 46.7429 2.56123 47.5574 3.56625 47.5574H8.41717C7.41228 47.5575 6.59799 46.7429 6.59799 45.7383Z" fill="#A08D70"/>
<path d="M11.4484 25.0715H1.74707V43.0613H11.4484V25.0715Z" fill="#C6A875"/>
<path d="M6.59799 25.0715H1.74707V43.0613H6.59799V25.0715Z" fill="#B5915D"/>
<path d="M64.098 14.3456C62.1456 12.3033 60.0597 11.1609 59.0569 10.846L59.0577 10.8489C53.8588 8.64759 48.1369 9.65152 43.4343 12.7732C41.4183 11.4346 39.2334 10.497 36.9958 10.0237C36.2538 9.90075 35.7639 10.3601 35.652 11.015L35.6517 11.0147C34.8123 13.8756 31.5798 15.27 28.9294 13.9351C28.9294 13.9351 28.9294 13.9351 28.9291 13.9351C27.7181 13.3212 27.4728 14.4387 27.2764 14.6285C25.971 16.5845 23.778 17.8946 21.2728 17.9877L21.2739 17.9908C21.2739 17.9908 20.1034 17.9622 19.7004 18.8937C15.3166 28.2969 18.987 40.8319 27.7925 46.937C25.7999 62.3174 35.1509 75.5988 35.7354 64.5028C35.8329 62.6843 35.2949 53.887 41.1369 52.1993C41.1373 52.1993 41.1388 52.1983 41.1388 52.1983C42.6409 51.7458 44.1212 51.7143 45.7296 52.1983L45.7309 52.1993C47.4176 52.685 49.1864 54.1868 50.1316 56.706C50.1867 56.8619 50.2502 57.0587 50.2502 57.0587C51.6678 61.5159 50.6569 64.308 51.5307 67.0592C53.4219 73.0077 60.8746 60.8274 59.0755 46.9369C69.7341 39.5481 72.4551 23.2252 64.098 14.3456Z" fill="#B0DCF7"/>
<path d="M30.6716 47.1071C30.7623 45.399 29.6963 44.5769 29.6963 44.5769L29.6975 44.5755C21.9355 38.373 18.6267 26.8618 22.5556 17.828C22.1394 17.9159 21.7112 17.9714 21.2728 17.9877L21.2739 17.9908C21.2739 17.9908 20.1034 17.9623 19.7004 18.8937C15.2994 28.334 19.0158 40.8519 27.7925 46.9371C25.9349 61.2756 33.9488 73.8373 35.5097 66.3885C33.2104 64.2576 30.0723 57.0566 30.6716 47.1071Z" fill="#7AC1DD"/>
<path d="M64.0979 14.3456C62.1455 12.3033 60.0596 11.1609 59.0568 10.846L59.0576 10.8489C54.1059 8.7523 48.5627 9.53323 43.8388 12.5114C38.5095 28.3176 44.804 45.8023 59.2012 54.5472C59.4248 52.1466 59.4172 49.5728 59.0758 46.937C69.734 39.5481 72.4549 23.2252 64.0979 14.3456Z" fill="#BBE6FC"/>
<path d="M14.5398 3.39643V6.12041C14.5398 7.24902 13.6249 8.16354 12.4967 8.16354H7.58561C6.4574 8.16354 5.54248 7.24889 5.54248 6.12041V3.39643C5.54248 2.26795 6.4574 1.35303 7.58561 1.35303H12.4968C13.6249 1.35303 14.5398 2.26795 14.5398 3.39643Z" fill="#DBDADF"/>
<path d="M12.4969 4.97425H7.58568C6.53637 4.97425 5.67231 4.18251 5.55678 3.16382C5.53723 3.33622 5.5427 3.15233 5.5427 6.12036C5.5427 7.24897 6.45762 8.16349 7.58582 8.16349H12.497C13.6252 8.16349 14.5402 7.24884 14.5402 6.12036C14.5402 3.15397 14.5455 3.33485 14.5261 3.16382C14.4101 4.18265 13.5463 4.97425 12.4969 4.97425Z" fill="#B8BFC1"/>
<path d="M68.4538 19.5047L68.4566 19.5111C67.6251 17.3697 66.2189 15.1018 64.4073 13.3097C64.026 12.8998 63.3846 12.8718 62.9687 13.2492C62.5497 13.6294 62.5181 14.2776 62.8983 14.6968C63.0223 14.8334 63.5311 15.3036 64.1669 16.1119C70.8703 24.5762 68.2701 39.2764 58.4122 46.1114C58.0973 46.3296 57.9306 46.7051 57.9799 47.0852C59.4449 58.3966 54.5872 67.5873 52.9135 67.5891C52.7769 67.5891 52.5123 67.1103 52.3503 66.476C51.7434 64.131 52.4868 60.3018 51.0164 56.3636C48.4331 48.9636 38.2827 48.9438 35.6979 56.38C34.2639 60.4686 34.9542 64.1653 34.3696 66.4784C34.0868 67.5573 33.8065 67.5891 33.8065 67.5891C32.1705 67.5873 27.2641 58.4817 28.7405 47.0852C28.7897 46.7054 28.6231 46.3296 28.3081 46.1114C21.0267 41.0628 17.2995 31.2722 19.3781 22.7509C19.7138 21.3826 20.0497 20.5671 20.3702 19.7828C20.5768 19.3149 20.6182 19.0674 21.1913 19.0427C21.2582 19.0454 21.3239 19.042 21.3879 19.0322C24.196 18.8804 26.83 17.3329 28.3078 14.8323C32.2021 16.6248 35.7657 14.3227 36.5709 11.308C36.5945 11.2258 36.6144 11.1172 36.6595 11.0576C36.7961 11.0446 39.6847 11.5919 42.7933 13.6558C43.1367 13.884 43.5832 13.8839 43.9268 13.656C49.4653 9.97961 55.664 9.87734 60.273 12.6799C61.3705 13.3444 62.6548 11.6842 61.1393 10.8111C55.9499 7.79101 49.2941 7.90367 43.3601 11.5844C41.1496 10.2137 38.6703 9.31091 37.0916 9.0424C35.7916 8.82666 34.8632 9.68279 34.6425 10.5853C34.078 12.8709 31.5305 14.1482 29.3102 13.0424C28.1466 12.4471 27.0451 12.8908 26.6318 13.6352C26.5877 13.7144 26.5422 13.7923 26.495 13.8694C26.4723 13.9064 26.4521 13.9451 26.4343 13.9846C26.3155 14.1215 24.7094 16.8585 21.1689 16.9901C20.0795 17.0373 19.1271 17.531 18.7011 18.4981C18.124 19.739 17.6921 21.0073 17.3775 22.304C15.2033 31.1851 18.8317 41.6973 26.6342 47.4338C25.4195 58.3381 29.8347 69.6344 33.8048 69.6381C37.1588 69.6381 36.5857 63.4153 36.8266 60.9527C37.1319 57.6999 38.2114 54.1112 41.3488 53.1978V53.1975C45.1742 52.1037 48.0746 53.9754 49.1973 57.3819L49.1972 57.382C50.5324 61.5576 49.5365 64.4303 50.4774 67.3784C51.1022 69.344 52.271 69.6381 52.9133 69.6381C56.8559 69.6381 61.3094 58.4178 60.086 47.4338C68.933 40.9303 72.2385 28.3435 68.4538 19.5047Z" fill="#231F20"/>
<path d="M19.4128 5.81507C19.9788 5.81507 20.4377 5.35638 20.4377 4.79022C20.4377 4.22407 19.9788 3.76538 19.4128 3.76538H15.5018V3.42851C15.5018 1.73702 14.1259 0.361084 12.4347 0.361084H7.52539C5.83418 0.361084 4.45825 1.73702 4.45825 3.42851V3.76538H2.74161C1.3658 3.76538 0.00723031 4.80103 0.00723031 6.85974C0.00723031 12.7065 -0.0534728 12.4807 0.176898 12.8296L4.63284 19.5749H3.50723C1.93948 19.5749 0.66389 20.8503 0.66389 22.4182C0.66389 22.5452 0.66389 45.3688 0.66389 45.7551C0.66389 46.9613 1.42022 47.9917 2.48239 48.4042V66.7955C2.48239 68.3632 3.75784 69.6388 5.32573 69.6388H7.75016C9.31791 69.6388 10.5935 68.3633 10.5935 66.7955V56.1447C10.5935 55.5785 10.1347 55.1198 9.56866 55.1198C9.00264 55.1198 8.54381 55.5785 8.54381 56.1447V66.7955C8.54381 67.2331 8.1878 67.5892 7.75002 67.5892H5.32573C4.88809 67.5892 4.53194 67.2334 4.53194 66.7955V48.5982H8.54381V52.8651C8.54381 53.4312 9.00264 53.8899 9.56866 53.8899C10.1347 53.8899 10.5935 53.4312 10.5935 52.8651V48.4039C11.6557 47.9914 12.412 46.9608 12.412 45.7549V31.2766C12.412 30.7105 11.9532 30.2518 11.3872 30.2518C10.8211 30.2518 10.3623 30.7105 10.3623 31.2766V42.0531H2.71358V26.1197H10.3624V27.815C10.3624 28.3812 10.8213 28.8399 11.3873 28.8399C11.9533 28.8399 12.4121 28.3812 12.4121 27.815V22.4181C12.4121 20.8503 11.1367 19.5747 9.56879 19.5747H7.08926L2.05678 11.9567V6.85974C2.05678 5.98651 2.41321 5.83681 2.76909 5.81507H4.45838V6.15194C4.45838 7.84329 5.83432 9.21909 7.52553 9.21909H12.435C14.1262 9.21909 15.5021 7.84329 15.5021 6.15194V5.81507C15.5018 5.81507 19.4128 5.81507 19.4128 5.81507ZM10.3623 44.1026V45.7551C10.3623 46.1928 10.0064 46.5489 9.56852 46.5489H3.50723C3.06959 46.5489 2.71344 46.193 2.71344 45.7551V44.1026H10.3623ZM10.3623 22.4181V24.0703H2.71358V22.4181C2.71358 21.9804 3.06959 21.6243 3.50737 21.6243C10.9774 21.6243 2.37643 21.6243 9.56879 21.6243C10.0063 21.6244 10.3623 21.9803 10.3623 22.4181ZM13.4523 6.15181C13.4523 6.7129 12.9958 7.1694 12.4347 7.1694H7.52539C6.9643 7.1694 6.5078 6.7129 6.5078 6.15181V3.42864C6.5078 2.86741 6.9643 2.41077 7.52539 2.41077H12.4348C12.9959 2.41077 13.4524 2.86741 13.4524 3.42864L13.4523 6.15181Z" fill="#231F20"/>
</g>
<defs>
<clipPath id="clip0_12_19923">
<rect width="70" height="70" fill="white"/>
</clipPath>
</defs>
</svg>
