<svg width="60" height="60" viewBox="0 0 60 60" fill="none" xmlns="http://www.w3.org/2000/svg">
<path d="M26.9204 0.878906C12.5381 0.878906 0.878906 12.5381 0.878906 26.9205C0.878906 33.3101 3.18141 39.1609 7.0002 43.692H3.95648C2.91047 43.692 2.0625 44.5399 2.0625 45.5859C2.0625 46.632 2.91047 47.4799 3.95648 47.4799H11.5322C12.5782 47.4799 13.4262 46.632 13.4262 45.5859V38.0102C13.4262 36.9642 12.5782 36.1162 11.5322 36.1162C10.4862 36.1162 9.6382 36.9642 9.6382 38.0102V40.9234C6.53145 37.0964 4.66664 32.2226 4.66664 26.9207C4.66664 14.65 14.6496 4.66688 26.9204 4.66688C39.1912 4.66688 49.1742 14.6497 49.1742 26.9205H52.9621C52.9621 12.5381 41.3029 0.878906 26.9204 0.878906Z" fill="#1F5FFF"/>
<path d="M50.5341 15.9307C49.7125 16.2345 48.9588 16.7141 48.3209 17.3519L47.4175 18.2553C48.5482 20.9198 49.174 23.8484 49.174 26.9205H52.9619C52.9619 22.9932 52.0908 19.2699 50.5341 15.9307Z" fill="#1F5FFF"/>
<path d="M25.8893 45.1406L20.0303 50.9997C19.1058 51.9242 19.1058 53.4232 20.0303 54.3477L23.413 57.7304C24.6851 59.0025 26.5672 59.4437 28.2723 58.8699C31.9028 57.6478 38.5588 54.4998 46.5293 46.5293C54.4998 38.5588 57.6478 31.9028 58.8699 28.2723C59.4438 26.5672 59.0026 24.6851 57.7304 23.413L54.3477 20.0303C53.4232 19.1058 51.9241 19.1058 50.9997 20.0303L45.1406 25.8893C44.2161 26.8138 44.2161 28.3129 45.1406 29.2374L46.4025 30.4992C46.852 30.9488 46.9484 31.6411 46.6384 32.1961C45.677 33.9172 43.4329 37.6412 40.537 40.537C37.6412 43.4329 33.9172 45.677 32.1961 46.6384C31.6411 46.9484 30.9488 46.852 30.4992 46.4025L29.2374 45.1406C28.3127 44.2161 26.8138 44.2161 25.8893 45.1406Z" fill="#04CE78"/>
<path d="M57.7302 23.4131L55.5431 21.2261C56.8152 22.4981 57.2564 24.3803 56.6824 26.0854C55.4604 29.7158 52.3124 36.3719 44.3419 44.3424C36.3714 52.3129 29.7154 55.4609 26.0849 56.6829C24.3798 57.2569 22.4977 56.8157 21.2256 55.5435L23.4128 57.7307C24.6848 59.0028 26.567 59.444 28.2721 58.8701C31.9025 57.6481 38.5586 54.5001 46.5291 46.5295C54.4996 38.559 57.6476 31.903 58.8696 28.2726C59.4435 26.5675 59.0023 24.6853 57.7302 23.4131Z" fill="#04CE78"/>
<path d="M2.43621 36.6871C2.53594 36.6871 2.6373 36.67 2.73633 36.634C3.19254 36.4682 3.42785 35.964 3.26215 35.5078C2.26383 32.7613 1.7577 29.8724 1.7577 26.9211C1.7577 20.1997 4.3752 13.8807 9.12785 9.12797C13.8805 4.3752 20.1996 1.75781 26.921 1.75781C32.3164 1.75781 37.4592 3.44039 41.7935 6.62367C42.1847 6.91102 42.7348 6.82676 43.0221 6.43559C43.3095 6.04441 43.2252 5.49434 42.834 5.20699C38.1959 1.80059 32.6932 0 26.921 0C19.73 0 12.9696 2.80031 7.88496 7.88496C2.80031 12.9696 0 19.7302 0 26.921C0 30.0777 0.541758 33.1687 1.61016 36.1082C1.74 36.4652 2.07703 36.6871 2.43621 36.6871Z" fill="#000D44"/>
<path d="M58.3514 22.7913L54.9696 19.4096C54.3565 18.7964 53.5411 18.4587 52.6737 18.4587C52.6105 18.4587 52.5477 18.461 52.4851 18.4646C51.1861 14.5401 48.97 10.9265 46.0433 7.97311C45.7017 7.62834 45.1452 7.62588 44.8004 7.96748C44.4557 8.30908 44.4532 8.86561 44.7948 9.21037C47.5362 11.9766 49.61 15.3619 50.8229 19.0376C50.6655 19.1473 50.5163 19.2709 50.3777 19.4094L49.1768 20.6104C47.8942 16.1079 45.2373 12.0442 41.583 9.04209C37.4595 5.65432 32.2523 3.78857 26.9209 3.78857C14.1655 3.78857 3.78832 14.1658 3.78832 26.9212C3.78832 32.203 5.62348 37.3728 8.95559 41.4781C9.19008 41.7669 9.5809 41.8769 9.93188 41.7525C10.2825 41.6282 10.5169 41.2963 10.5169 40.9242V38.0111C10.5169 37.4515 10.9721 36.9963 11.5317 36.9963C12.0919 36.9963 12.5476 37.4516 12.5476 38.0111V45.5868C12.5476 46.1464 12.0919 46.6016 11.5317 46.6016H3.95602C3.39645 46.6016 2.94129 46.1464 2.94129 45.5868C2.94129 45.0272 3.39656 44.5721 3.95602 44.5721H7.00043C7.34238 44.5721 7.65316 44.3738 7.79742 44.0637C7.94156 43.7536 7.8927 43.3881 7.67238 43.1267C6.62227 41.8811 5.69086 40.5303 4.90395 39.1116C4.66852 38.6871 4.13367 38.534 3.7091 38.7694C3.28465 39.0048 3.13148 39.5398 3.36691 39.9642C3.91289 40.9484 4.52379 41.9022 5.19211 42.8142H3.95602C2.4273 42.8142 1.18359 44.058 1.18359 45.5867C1.18359 47.1155 2.4273 48.3592 3.95602 48.3592H11.5317C13.0611 48.3592 14.3053 47.1155 14.3053 45.5867V38.0111C14.3053 36.4824 13.0611 35.2387 11.5317 35.2387C10.0029 35.2387 8.75918 36.4824 8.75918 38.0111V38.1755C6.67371 34.811 5.54613 30.9004 5.54613 26.9213C5.54613 15.1351 15.1348 5.54639 26.921 5.54639C31.8465 5.54639 36.6574 7.27022 40.4673 10.4003C44.1035 13.3876 46.6718 17.5104 47.7361 22.0512L44.5187 25.2686C43.9056 25.8817 43.5678 26.6969 43.5678 27.5639C43.5678 28.431 43.9056 29.2462 44.5187 29.8593L45.7815 31.1221C45.9517 31.2918 45.9882 31.5573 45.8702 31.7683C45.5459 32.3494 45.0127 33.2684 44.3146 34.346C44.0507 34.7534 44.167 35.2976 44.5744 35.5615C44.9818 35.8254 45.5259 35.7092 45.7898 35.3017C46.5138 34.184 47.0679 33.2291 47.4047 32.6256C47.7543 32.0003 47.7818 31.2604 47.52 30.6247L55.6095 22.5353L57.1085 24.0344C58.1512 25.0772 58.507 26.5938 58.0372 27.992C55.4822 35.5811 49.3407 42.4742 45.9073 45.9076C42.4738 49.3411 35.5807 55.4826 27.9921 58.0375C26.5935 58.5075 25.0768 58.1519 24.034 57.109L22.5349 55.6099L30.6245 47.5204C31.2604 47.7822 31.9999 47.7547 32.625 47.4054C34.5593 46.3249 38.24 44.0767 41.1587 41.1592C41.8852 40.4329 42.6204 39.6062 43.3443 38.7025C43.6477 38.3236 43.5865 37.7706 43.2076 37.4672C42.8287 37.1638 42.2756 37.225 41.9723 37.6039C41.2887 38.4574 40.5968 39.2355 39.9161 39.9163C37.0443 42.7869 33.2611 45.0368 31.7675 45.8712C31.5573 45.989 31.2916 45.9523 31.1211 45.7813L29.8591 44.5193C29.246 43.9062 28.4309 43.5685 27.5638 43.5685C26.6967 43.5685 25.8816 43.9062 25.2684 44.5193L19.4094 50.3782C18.7963 50.9914 18.4586 51.8067 18.4586 52.6743C18.4586 53.5417 18.7963 54.3571 19.4094 54.9702L22.7912 58.3521C23.8664 59.4273 25.2872 60.0007 26.7483 60.0006C27.3499 60.0006 27.9587 59.9032 28.5525 59.7037C30.9994 58.8799 33.5848 57.626 36.2368 55.977C39.8984 53.7003 43.5702 50.7307 47.1502 47.1506C50.7301 43.5706 53.6998 39.8988 55.9765 36.2373C57.6255 33.5853 58.8793 30.9999 59.7033 28.5525C60.3872 26.5167 59.8693 24.3092 58.3514 22.7913ZM46.402 29.2568L45.7615 28.6163C45.4803 28.3351 45.3255 27.9614 45.3255 27.5639C45.3255 27.1664 45.4803 26.7926 45.7615 26.5115L51.6205 20.6524C51.9016 20.3713 52.2756 20.2165 52.6736 20.2165C53.0714 20.2165 53.4455 20.3713 53.7266 20.6524L54.3666 21.2924L46.402 29.2568ZM20.2162 52.6738C20.2162 52.2758 20.3711 51.9019 20.6522 51.6208L26.5112 45.7617C26.7923 45.4806 27.1662 45.3258 27.5637 45.3258C27.9612 45.3258 28.335 45.4806 28.6161 45.7617L29.2566 46.4022L21.292 54.3667L20.6521 53.7267C20.3711 53.4457 20.2162 53.0718 20.2162 52.6738Z" fill="#000D44"/>
<path d="M27.7993 10.822V8.45459C27.7993 7.9692 27.4058 7.57568 26.9204 7.57568C26.435 7.57568 26.0415 7.9692 26.0415 8.45459V10.822C26.0415 11.3074 26.435 11.7009 26.9204 11.7009C27.4058 11.7009 27.7993 11.3074 27.7993 10.822Z" fill="#000D44"/>
<path d="M18.872 13.8579C19.0211 13.8579 19.1723 13.8198 19.3107 13.74C19.731 13.4973 19.875 12.9598 19.6323 12.5395L18.4486 10.4893C18.2058 10.069 17.6682 9.92507 17.2482 10.1676C16.8278 10.4103 16.6838 10.9479 16.9265 11.3681L18.1102 13.4183C18.2729 13.7001 18.5683 13.8579 18.872 13.8579Z" fill="#000D44"/>
<path d="M12.9781 19.7503C13.2818 19.7503 13.5772 19.5927 13.74 19.3107C13.9827 18.8904 13.8387 18.353 13.4184 18.1103L11.3682 16.9266C10.9478 16.6838 10.4103 16.8278 10.1677 17.2482C9.925 17.6686 10.069 18.206 10.4894 18.4487L12.5396 19.6324C12.678 19.7123 12.829 19.7503 12.9781 19.7503Z" fill="#000D44"/>
<path d="M8.45459 26.0415C7.9692 26.0415 7.57568 26.435 7.57568 26.9204C7.57568 27.4058 7.9692 27.7993 8.45459 27.7993H10.822C11.3074 27.7993 11.7009 27.4058 11.7009 26.9204C11.7009 26.435 11.3074 26.0415 10.822 26.0415H8.45459Z" fill="#000D44"/>
<path d="M40.8631 19.7502C41.0122 19.7502 41.1634 19.7121 41.3018 19.6323L43.352 18.4486C43.7723 18.2059 43.9163 17.6683 43.6736 17.2481C43.4309 16.8276 42.8932 16.6839 42.4732 16.9264L40.423 18.1101C40.0026 18.3528 39.8586 18.8904 40.1013 19.3106C40.2641 19.5925 40.5595 19.7502 40.8631 19.7502Z" fill="#000D44"/>
<path d="M36.5929 10.1673C36.1725 9.92445 35.635 10.0686 35.3924 10.4889L34.2087 12.5391C33.966 12.9595 34.11 13.497 34.5304 13.7396C34.6688 13.8195 34.82 13.8575 34.969 13.8575C35.2728 13.8575 35.5681 13.6998 35.731 13.4179L36.9147 11.3677C37.1573 10.9475 37.0132 10.41 36.5929 10.1673Z" fill="#000D44"/>
<path d="M30.3563 31.5625C30.4257 31.5793 30.4951 31.5873 30.5634 31.5873C30.9599 31.5873 31.3197 31.317 31.417 30.9145L33.2464 23.3388C33.3603 22.8669 33.0703 22.392 32.5983 22.2781C32.1268 22.1643 31.6517 22.4543 31.5378 22.9262L29.7084 30.5019C29.5944 30.9738 29.8845 31.4486 30.3563 31.5625Z" fill="#000D44"/>
<path d="M35.1948 23.1327C35.1948 23.6181 35.5883 24.0116 36.0737 24.0116H38.895L36.1067 30.3548C35.9113 30.7992 36.1132 31.3178 36.5575 31.513C36.6726 31.5636 36.7926 31.5875 36.9107 31.5875C37.2487 31.5875 37.5709 31.3914 37.7156 31.0621L41.0459 23.4864C41.1653 23.2146 41.1395 22.9009 40.9773 22.6523C40.8151 22.4038 40.5382 22.2539 40.2414 22.2539H36.0737C35.5883 22.2539 35.1948 22.6474 35.1948 23.1327Z" fill="#000D44"/>
<path d="M25.7727 22.6237L21.982 27.9634C21.7917 28.2314 21.767 28.5834 21.9178 28.8754C22.0686 29.1675 22.3699 29.3509 22.6986 29.3509H25.5949L25.5915 30.7059C25.5904 31.1913 25.9828 31.5857 26.4682 31.5869H26.4704C26.9548 31.5869 27.348 31.1949 27.3492 30.7102L27.3526 29.3509H27.456C27.9414 29.3509 28.3349 28.9574 28.3349 28.472C28.3349 27.9866 27.9414 27.5931 27.456 27.5931H27.3571L27.3682 23.1344C27.3691 22.7515 27.1221 22.412 26.7573 22.2952C26.3927 22.1787 25.9944 22.3114 25.7727 22.6237ZM25.5994 27.5934H24.4004L25.6036 25.8984L25.5994 27.5934Z" fill="#000D44"/>
<path d="M20.5973 30.7085C20.5973 30.2231 20.2038 29.8296 19.7184 29.8296H17.9387C18.3279 29.2766 18.8663 28.5095 19.6098 27.4471C19.6132 27.4421 19.6166 27.4373 19.6199 27.4324C20.2102 26.5512 20.5972 25.9085 20.5972 25.0384C20.5972 23.503 19.3481 22.2539 17.8127 22.2539C16.4852 22.2539 15.3362 23.1983 15.0806 24.4996C14.9871 24.9758 15.2973 25.4378 15.7736 25.5313C16.2493 25.6245 16.7119 25.3146 16.8054 24.8382C16.8995 24.3592 17.3231 24.0115 17.8128 24.0115C18.379 24.0115 18.8396 24.472 18.8396 25.0383C18.8396 25.3774 18.6627 25.703 18.1647 26.4465C15.8619 29.7368 15.5447 30.1695 15.5332 30.185C15.3355 30.4518 15.3049 30.8071 15.4542 31.1037C15.6035 31.4003 15.9071 31.5873 16.2391 31.5873H19.7184C20.2039 31.5873 20.5973 31.1939 20.5973 30.7085Z" fill="#000D44"/>
</svg>
