<svg width="52" height="60" viewBox="0 0 52 60" fill="none" xmlns="http://www.w3.org/2000/svg">
<path fill-rule="evenodd" clip-rule="evenodd" d="M49.6484 57.3047C49.6484 57.75 49.2852 58.1133 48.8398 58.1133H27.7812L35.668 45.3984L38.1172 45.457C38.7031 45.4805 39.1484 44.9531 39.0664 44.3789L38.0117 37.9219L39.9687 38.4961C39.9805 38.6719 39.9922 46.1836 39.9922 46.1836C37.625 46.6406 35.832 48.7266 35.832 51.2227C35.832 54.0469 38.1289 56.3555 40.9648 56.3555C43.7891 56.3555 46.0977 54.0586 46.0977 51.2227C46.0977 48.7031 44.2695 46.5937 41.8672 46.1719V39.0586L49.0742 41.168C49.4375 41.2734 49.6602 41.5664 49.6602 41.9414V57.3047H49.6484Z" fill="white"/>
<path fill-rule="evenodd" clip-rule="evenodd" d="M20.9258 38.8242C22.2734 40.0664 24.0664 40.8047 26 40.8047C27.9336 40.8047 29.7266 40.0664 31.0742 38.8242L26 55.7813L20.9258 38.8242Z" fill="#1F5FFF"/>
<path fill-rule="evenodd" clip-rule="evenodd" d="M3.14844 58.1133C2.70313 58.1133 2.33984 57.75 2.33984 57.3047V41.9297C2.33984 41.5547 2.5625 41.2617 2.91406 41.1563L10.1211 39.0469V46.2773C8.25781 46.6875 6.86328 48.3516 6.86328 50.3438V55.5703C6.86328 56.0859 7.28516 56.5078 7.80078 56.5078H9.03125C10.2617 56.5078 10.2617 54.6328 9.03125 54.6328H8.73828V50.332C8.73828 49.0664 9.76953 48.0469 11.0234 48.0469C12.2891 48.0469 13.3203 49.0781 13.3203 50.332V54.6328H12.957C11.7266 54.6328 11.7266 56.5078 12.957 56.5078H14.2578C14.7734 56.5078 15.1953 56.0859 15.1953 55.5703V50.3438C15.1953 48.3867 13.8359 46.7344 12.0078 46.3008C12.0078 43.8047 11.8672 40.9453 12.0313 38.4961L14 37.9219L12.9336 44.3789C12.8867 44.6484 12.9687 44.9297 13.1562 45.1406C13.3437 45.3516 13.6016 45.4687 13.8828 45.457L16.332 45.3984L24.2305 58.1133H3.14844Z" fill="white"/>
<path fill-rule="evenodd" clip-rule="evenodd" d="M23.1758 52.8867L17.6328 43.9688C17.457 43.6875 17.1523 43.5234 16.8125 43.5234L14.9609 43.5703L15.9922 37.3359L18.3125 36.6562L23.1758 52.8867Z" fill="#04CE78"/>
<path fill-rule="evenodd" clip-rule="evenodd" d="M16.6367 19.8516V17.0157L19.918 12.8555C20.1523 12.5508 20.5391 12.4571 20.8789 12.6094C24.6875 14.2969 30.3125 13.8516 35.2812 13.4532L35.3516 19.8633C35.3516 25.0196 31.1562 29.2266 25.9883 29.2266C20.8437 29.2032 16.6367 25.0078 16.6367 19.8516Z" fill="#FECEA4"/>
<path fill-rule="evenodd" clip-rule="evenodd" d="M15.3242 7.19515C15.9687 6.32796 16.9531 5.88265 18.1132 5.88265C18.582 5.88265 19.0742 5.95296 19.5781 6.1053C20.5624 6.38655 21.1367 5.80061 21.4414 5.48421C25.0039 1.92171 31.4492 0.187333 35.3164 4.15999C37.6835 6.58577 38.7734 10.8514 37.1796 14.5311L37.1562 12.4451C37.1562 12.1873 37.039 11.9412 36.8515 11.7655C36.664 11.5897 36.4062 11.5076 36.1484 11.5194C32.0117 11.8475 25.4257 12.5858 21.6523 10.91C20.5156 10.4061 19.2382 10.7225 18.4648 11.7069L15.8398 15.0467C13.8945 11.3553 14.2929 8.55452 15.3242 7.19515Z" fill="#7C7C7C"/>
<path fill-rule="evenodd" clip-rule="evenodd" d="M13.9414 20.5194V18.703C13.9414 18.2343 14.4453 18.2929 14.7617 18.2929C14.7617 18.2929 14.7852 20.578 14.8086 20.9296C14.4922 20.9296 13.9414 20.9999 13.9414 20.5194Z" fill="#FECEA4"/>
<path fill-rule="evenodd" clip-rule="evenodd" d="M38 20.5194C38 20.9882 37.5078 20.9296 37.1914 20.9296C37.2266 20.578 37.2266 18.2929 37.2266 18.2929C37.5312 18.2929 38 18.246 38 18.703V20.5194Z" fill="#FECEA4"/>
<path fill-rule="evenodd" clip-rule="evenodd" d="M37.0391 43.5586L35.1875 43.5117C34.8594 43.5 34.543 43.6758 34.3672 43.957L28.8359 52.8633L33.6992 36.6328L36.0195 37.3125L37.0391 43.5586Z" fill="#04CE78"/>
<path fill-rule="evenodd" clip-rule="evenodd" d="M21.8633 30.293C23.1406 30.8086 24.5469 31.0781 26 31.0781C27.4648 31.0781 28.8594 30.7969 30.1367 30.293C30.0078 31.8164 30.418 33.3984 31.3438 35.0156C30.6055 37.3359 28.4609 38.918 26 38.918C23.5391 38.918 21.3945 37.3242 20.6562 35.0156C21.582 33.4102 21.9805 31.8164 21.8633 30.293Z" fill="#FECEA4"/>
<path fill-rule="evenodd" clip-rule="evenodd" d="M44.2227 51.211C44.2227 53.004 42.7578 54.4688 40.9648 54.4688C39.1719 54.4688 37.707 53.004 37.707 51.211C37.707 49.418 39.1719 47.9532 40.9648 47.9532C42.7695 47.9415 44.2227 49.4063 44.2227 51.211Z" fill="#7C7C7C"/>
<path fill-rule="evenodd" clip-rule="evenodd" d="M40.9648 50.6719C41.2578 50.6719 41.4922 50.9063 41.4922 51.2109C41.4922 51.5039 41.2578 51.7383 40.9648 51.7383C40.6719 51.7383 40.4258 51.5039 40.4258 51.2109C40.4375 50.918 40.6719 50.6719 40.9648 50.6719Z" fill="#04CE78"/>
<path fill-rule="evenodd" clip-rule="evenodd" d="M40.9648 53.6133C42.2891 53.6133 43.3672 52.5352 43.3672 51.2109C43.3672 49.8867 42.2891 48.7969 40.9648 48.7969C39.6406 48.7969 38.5508 49.875 38.5508 51.2109C38.5625 52.5352 39.6406 53.6133 40.9648 53.6133Z" fill="white"/>
<path fill-rule="evenodd" clip-rule="evenodd" d="M40.9648 53.6133C42.2891 53.6133 43.3672 52.5352 43.3672 51.2109C43.3672 49.8867 42.2891 48.7969 40.9648 48.7969C39.6406 48.7969 38.5508 49.875 38.5508 51.2109C38.5625 52.5352 39.6406 53.6133 40.9648 53.6133ZM40.9648 50.6719C41.2578 50.6719 41.4922 50.9063 41.4922 51.2109C41.4922 51.5039 41.2578 51.7383 40.9648 51.7383C40.6719 51.7383 40.4258 51.5039 40.4258 51.2109C40.4375 50.918 40.6719 50.6719 40.9648 50.6719Z" fill="#000D44"/>
<path fill-rule="evenodd" clip-rule="evenodd" d="M51.5234 57.3047V41.9297C51.5234 40.7344 50.75 39.7031 49.6016 39.3633L41.6797 37.043C41.3164 35.0742 40.4141 33.1992 39.0547 31.6289C37.5547 29.9062 35.6445 28.6992 33.582 28.1601C35.1289 26.7422 36.2773 24.9023 36.8398 22.8164H37.5898C38.8438 22.8164 39.875 21.7969 39.875 20.5312V18.7148C39.875 17.6836 39.1953 16.8164 38.2578 16.5351C40.8242 12.2578 40.1562 6.4453 36.6641 2.85936C31.9531 -1.98049 24.3945 -0.105486 20.0117 4.27733C17.4922 3.58592 15.1953 4.26561 13.8242 6.08201C11.9609 8.56639 12.2188 12.4805 14.457 16.4297C13.1445 16.4297 12.0781 17.3789 12.0781 18.7148V20.5312C12.0781 21.7969 13.0977 22.8164 14.3633 22.8164H15.1602C15.7227 24.8906 16.8711 26.7305 18.418 28.1601C16.3438 28.7109 14.4336 29.9062 12.9453 31.6289C11.5859 33.1992 10.6836 35.0742 10.3203 37.043L2.41016 39.3633C1.26172 39.7031 0.488281 40.7344 0.488281 41.9297V57.3164C0.488281 58.793 1.69531 60 3.16016 60H48.8633C50.3164 59.9883 51.5234 58.7812 51.5234 57.3047ZM44.2227 51.2109C44.2227 53.0039 42.7578 54.4687 40.9648 54.4687C39.1719 54.4687 37.707 53.0039 37.707 51.2109C37.707 49.418 39.1719 47.9531 40.9648 47.9531C42.7695 47.9414 44.2227 49.4062 44.2227 51.2109ZM39.6055 36.4219C39.6055 36.4219 33.3711 34.6055 33.2773 34.582C32.1641 32.8594 31.7773 31.2656 32.1289 29.7539C35.6094 30.2226 38.5742 33.0117 39.6055 36.4219ZM21.8633 30.293C23.1406 30.8086 24.5469 31.0781 26 31.0781C27.4648 31.0781 28.8594 30.7969 30.1367 30.293C30.0078 31.8164 30.418 33.3984 31.3438 35.0156C30.6055 37.3359 28.4609 38.918 26 38.918C23.5391 38.918 21.3945 37.3242 20.6562 35.0156C21.582 33.4101 21.9805 31.8164 21.8633 30.293ZM37.0391 43.5586L35.1875 43.5117C34.8594 43.5 34.543 43.6758 34.3672 43.957L28.8359 52.8633L33.6992 36.6328L36.0195 37.3125L37.0391 43.5586ZM38 20.5195C38 20.9883 37.5078 20.9297 37.1914 20.9297C37.2266 20.5781 37.2266 18.293 37.2266 18.293C37.5312 18.293 38 18.2461 38 18.7031V20.5195ZM13.9414 20.5195V18.7031C13.9414 18.2344 14.4453 18.293 14.7617 18.293C14.7617 18.293 14.7852 20.5781 14.8086 20.9297C14.4922 20.9297 13.9414 21 13.9414 20.5195ZM15.3242 7.1953C15.9687 6.32811 16.9531 5.8828 18.1133 5.8828C18.582 5.8828 19.0742 5.95311 19.5781 6.10545C20.5625 6.3867 21.1367 5.80076 21.4414 5.48436C25.0039 1.92186 31.4492 0.187482 35.3164 4.16014C37.6836 6.58592 38.7734 10.8515 37.1797 14.5312L37.1563 12.4453C37.1563 12.1875 37.0391 11.9414 36.8516 11.7656C36.6641 11.5898 36.4063 11.5078 36.1484 11.5195C32.0117 11.8476 25.4258 12.5859 21.6523 10.9101C20.5156 10.4062 19.2383 10.7226 18.4648 11.707L15.8398 15.0469C13.8945 11.3555 14.293 8.55467 15.3242 7.1953ZM16.6367 19.8515V17.0156L19.918 12.8555C20.1523 12.5508 20.5391 12.457 20.8789 12.6094C24.6875 14.2969 30.3125 13.8515 35.2813 13.4531L35.3516 19.8633C35.3516 25.0195 31.1562 29.2265 25.9883 29.2265C20.8437 29.2031 16.6367 25.0078 16.6367 19.8515ZM19.8828 29.7539C20.2344 31.2656 19.8477 32.8594 18.7344 34.582C18.6406 34.5937 12.4062 36.4219 12.4062 36.4219C13.4141 33.0117 16.3906 30.2226 19.8828 29.7539ZM23.1758 52.8867L17.6328 43.9687C17.457 43.6875 17.1523 43.5234 16.8125 43.5234L14.9609 43.5703L15.9922 37.3359L18.3125 36.6562L23.1758 52.8867ZM3.14844 58.1133C2.70312 58.1133 2.33984 57.75 2.33984 57.3047V41.9297C2.33984 41.5547 2.5625 41.2617 2.91406 41.1562L10.1211 39.0469V46.2773C8.25781 46.6875 6.86328 48.3516 6.86328 50.3437V55.5703C6.86328 56.0859 7.28516 56.5078 7.80078 56.5078H9.03125C10.2617 56.5078 10.2617 54.6328 9.03125 54.6328H8.73828V50.332C8.73828 49.0664 9.76953 48.0469 11.0234 48.0469C12.2891 48.0469 13.3203 49.0781 13.3203 50.332V54.6328H12.957C11.7266 54.6328 11.7266 56.5078 12.957 56.5078H14.2578C14.7734 56.5078 15.1953 56.0859 15.1953 55.5703V50.3437C15.1953 48.3867 13.8359 46.7344 12.0078 46.3008C12.0078 43.8047 11.8672 40.9453 12.0312 38.4961L14 37.9219L12.9336 44.3789C12.8867 44.6484 12.9687 44.9297 13.1562 45.1406C13.3437 45.3516 13.6016 45.4687 13.8828 45.457L16.332 45.3984L24.2305 58.1133H3.14844ZM20.9258 38.8242C22.2734 40.0664 24.0664 40.8047 26 40.8047C27.9336 40.8047 29.7266 40.0664 31.0742 38.8242L26 55.7812L20.9258 38.8242ZM49.6484 57.3047C49.6484 57.75 49.2852 58.1133 48.8398 58.1133H27.7813L35.668 45.3984L38.1172 45.457C38.7031 45.4805 39.1484 44.9531 39.0664 44.3789L38.0117 37.9219L39.9688 38.4961C39.9805 38.6719 39.9922 46.1836 39.9922 46.1836C37.625 46.6406 35.832 48.7266 35.832 51.2226C35.832 54.0469 38.1289 56.3555 40.9648 56.3555C43.7891 56.3555 46.0977 54.0586 46.0977 51.2226C46.0977 48.7031 44.2695 46.5937 41.8672 46.1719V39.0586L49.0742 41.168C49.4375 41.2734 49.6602 41.5664 49.6602 41.9414V57.3047H49.6484Z" fill="#000D44"/>
</svg>
