<svg width="50" height="50" viewBox="0 0 50 50" fill="none" xmlns="http://www.w3.org/2000/svg">
<g id="icon" clip-path="url(#clip0_17_25094)">
<path id="Vector" d="M33.3083 4.43555C31.5414 4.43555 29.7898 4.89684 28.3131 5.86781C27.5188 6.38958 26.4148 6.8549 25.0002 6.8549C23.5857 6.8549 22.4817 6.38958 21.6873 5.86781C20.2115 4.89684 18.4591 4.43555 16.6922 4.43555C11.4825 4.43555 7.2583 8.65974 7.2583 13.8694V15.996C7.2583 21.6114 8.87282 27.1081 11.9091 31.8315C13.6357 34.517 14.9115 37.467 15.6857 40.5646L16.5639 44.0767C16.7825 44.9509 17.568 45.5646 18.4696 45.5646C19.4422 45.5646 20.268 44.8533 20.4123 43.8912L22.222 31.8283C22.4285 30.4533 23.6099 29.4355 25.0002 29.4355C26.3906 29.4355 27.572 30.4533 27.7785 31.8283L29.5881 43.8912C29.7325 44.8533 30.5583 45.5646 31.5309 45.5646C32.4325 45.5646 33.218 44.9509 33.4365 44.0767L34.3148 40.5646C35.0889 37.467 36.3648 34.517 38.0914 31.8315C40.4454 28.1702 41.9446 24.0436 42.4994 19.7581L42.643 12.5001C41.9801 7.93877 38.0535 4.43555 33.3083 4.43555Z" fill="#ECECEC"/>
<path id="Vector_2" d="M25.4032 27.0161C18.3556 27.0161 12.0516 24.9548 7.83545 21.7129C8.54916 25.2943 9.91529 28.7314 11.9088 31.8314C13.6355 34.5169 14.9113 37.4669 15.6855 40.5645L16.5637 44.0766C16.7822 44.9508 17.5677 45.5645 18.4693 45.5645C19.4419 45.5645 20.2677 44.8532 20.4121 43.8911L22.2217 31.8282C22.4282 30.4532 23.6096 29.4355 25 29.4355C26.3903 29.4355 27.5717 30.4532 27.7782 31.8282L29.5879 43.8911C29.7322 44.8532 30.558 45.5645 31.5306 45.5645C32.4322 45.5645 33.2177 44.9508 33.4363 44.0766L34.3145 40.5645C35.0887 37.4669 36.3645 34.5169 38.0911 31.8314C39.9572 28.9282 41.2766 25.7306 42.0242 22.3951C37.8387 25.2403 31.9419 27.0161 25.4032 27.0161Z" fill="#B6C1CE"/>
<g id="Group">
<path id="Vector_3" d="M37.0967 16.5322C40.6596 16.5322 43.5483 13.6435 43.5483 10.0806C43.5483 13.6435 46.437 16.5322 49.9999 16.5322C46.437 16.5322 43.5483 19.4209 43.5483 22.9838C43.5483 19.4209 40.6596 16.5322 37.0967 16.5322Z" fill="#FCD770"/>
<path id="Vector_4" d="M0 37.5C3.5629 37.5 6.45161 34.6112 6.45161 31.0483C6.45161 34.6112 9.34032 37.5 12.9032 37.5C9.34032 37.5 6.45161 40.3887 6.45161 43.9516C6.45161 40.3887 3.5629 37.5 0 37.5Z" fill="#FCD770"/>
</g>
<path id="Vector_5" d="M11.2901 15.996V15.7258H9.67725V15.996C9.67725 16.4581 9.68934 16.9202 9.71273 17.3799L11.324 17.2976C11.3022 16.8645 11.2901 16.4315 11.2901 15.996Z" fill="#000D44"/>
<path id="Vector_6" d="M9.8501 19.0427C10.3114 23.1048 11.7275 27.0749 13.9445 30.5225L15.3009 29.6499C13.217 26.4088 11.8872 22.6774 11.4525 18.8596L9.8501 19.0427Z" fill="#000D44"/>
<path id="Vector_7" d="M24.9998 9.27421C23.3046 9.27421 21.6708 8.77582 20.274 7.83308L19.3716 9.17018C21.0361 10.2936 22.9821 10.8871 24.9998 10.8871C27.0175 10.8871 28.9635 10.2936 30.6288 9.16937L29.7264 7.83228C28.3296 8.77582 26.695 9.27421 24.9998 9.27421Z" fill="#000D44"/>
<path id="Vector_8" d="M7.25806 31.0483H5.64516C5.64516 34.1604 3.1121 36.6935 0 36.6935V38.3064C3.1121 38.3064 5.64516 40.8395 5.64516 43.9516H7.25806C7.25806 40.8395 9.79113 38.3064 12.9032 38.3064V36.6935C9.79113 36.6935 7.25806 34.1604 7.25806 31.0483ZM6.45161 40.6411C5.75806 39.2943 4.65726 38.1935 3.31048 37.5C4.65726 36.8064 5.75806 35.7056 6.45161 34.3588C7.14516 35.7056 8.24597 36.8064 9.59274 37.5C8.24597 38.1935 7.14516 39.2943 6.45161 40.6411Z" fill="#000D44"/>
<path id="Vector_9" d="M44.3549 10.0808H42.8105C41.2831 6.28157 37.5444 3.62915 33.3081 3.62915C31.3081 3.62915 29.4275 4.17028 27.8694 5.19286C26.1444 6.32834 23.8565 6.32834 22.1307 5.19286C20.5734 4.17028 18.6928 3.62915 16.692 3.62915C11.0452 3.62915 6.45166 8.2227 6.45166 13.8695V15.9961C6.45166 21.7783 8.10489 27.4042 11.2315 32.2679C12.9138 34.8848 14.1492 37.7421 14.9041 40.7598L15.7815 44.2711C16.0896 45.5082 17.1952 46.3711 18.4694 46.3711C19.8525 46.3711 21.0057 45.3783 21.2097 44.0106L23.0186 31.9477C23.1678 30.9598 24.0009 30.2421 25 30.2421C25.9992 30.2421 26.8323 30.9598 26.9807 31.9477L28.7896 44.0106C28.9944 45.3783 30.1476 46.3711 31.5307 46.3711C32.8049 46.3711 33.9105 45.5082 34.2186 44.2711L35.0968 40.7598C35.8517 37.7412 37.088 34.884 38.7702 32.2679C40.6081 29.4082 41.9525 26.2146 42.7388 22.9001C42.738 22.9283 42.742 22.9558 42.742 22.984H44.3549C44.3549 19.8719 46.888 17.3388 50 17.3388V15.7259C46.888 15.7259 44.3549 13.1929 44.3549 10.0808ZM37.413 31.3953C35.6347 34.1614 34.3299 37.1808 33.5323 40.3695L32.6533 43.8808C32.5251 44.3977 32.063 44.7582 31.5307 44.7582C30.9525 44.7582 30.471 44.3429 30.3855 43.7711L28.5767 31.7082C28.3089 29.9235 26.8041 28.6292 25 28.6292C23.196 28.6292 21.6912 29.9235 21.4234 31.7082L19.6146 43.7711C19.5299 44.3429 19.0476 44.7582 18.4694 44.7582C17.9371 44.7582 17.475 44.3977 17.3452 43.8808L16.467 40.3695C15.6702 37.18 14.3646 34.1606 12.5863 31.3953C9.62827 26.7929 8.06456 21.4679 8.06456 15.9961V13.8695C8.06456 9.11221 11.9347 5.24205 16.692 5.24205C18.3767 5.24205 19.9509 5.69125 21.2444 6.54125C22.3742 7.28399 23.6388 7.66141 25 7.66141C26.3613 7.66141 27.6259 7.28399 28.7549 6.54125C30.0492 5.69125 31.6234 5.24205 33.3081 5.24205C37.563 5.24205 41.2339 8.41222 41.8388 12.5517L41.8726 13.0767C40.8726 14.6646 39.1081 15.7259 37.0968 15.7259V17.3388C38.9904 17.3388 40.6654 18.2792 41.6896 19.7138C41.1452 23.8493 39.6678 27.8872 37.413 31.3953ZM43.5484 19.6735C42.8549 18.3267 41.7541 17.2259 40.4073 16.5324C41.7541 15.8388 42.8549 14.738 43.5484 13.3912C44.242 14.738 45.3428 15.8388 46.6896 16.5324C45.3428 17.2259 44.242 18.3267 43.5484 19.6735Z" fill="#000D44"/>
</g>
<defs>
<clipPath id="clip0_17_25094">
<rect width="50" height="50" fill="white"/>
</clipPath>
</defs>
</svg>
