<svg width="50" height="50" viewBox="0 0 50 50" fill="none" xmlns="http://www.w3.org/2000/svg">
<g id="icon">
<g id="Group">
<g id="Group_2">
<path id="Vector" fill-rule="evenodd" clip-rule="evenodd" d="M23.8121 21.0332L29.5413 22.6222L41.1495 25.8416L44.2874 14.5776C45.8993 8.79192 42.4729 2.74055 36.6744 1.13215C30.8731 -0.476246 24.8109 2.93987 23.1963 8.72825L21.3374 15.408C21.3373 19.4886 22.4193 20.6485 23.8121 21.0332Z" fill="#04CE78"/>
</g>
<g id="Group_3">
<path id="Vector_2" fill-rule="evenodd" clip-rule="evenodd" d="M39.36 13.2101L36.2221 24.4741L41.1494 25.8416L44.2873 14.5775C45.8992 8.79185 42.4728 2.74048 36.6743 1.13208C35.8254 0.896826 34.9736 0.769482 34.1274 0.739014C38.4389 3.13638 40.736 8.2687 39.36 13.2101Z" fill="#1F5FFF"/>
</g>
<g id="Group_4">
<path id="Vector_3" fill-rule="evenodd" clip-rule="evenodd" d="M41.1492 25.8416L36.2219 24.4741L33.084 35.7382C32.2434 38.7584 30.1902 41.1335 27.5934 42.4844C27.3492 43.0796 27.0606 43.6388 26.7277 44.1647C26.5418 44.4609 26.3421 44.7461 26.1284 45.0201C31.4081 45.6651 36.5464 42.3626 38.0112 37.1057L41.1492 25.8416Z" fill="#DDDAEC"/>
</g>
<g id="Group_5">
<path id="Vector_4" fill-rule="evenodd" clip-rule="evenodd" d="M14.573 12.4792C9.45703 12.4792 5.31201 16.6178 5.31201 21.7224C5.31201 25.3239 7.37344 28.441 10.3864 29.969C13.8351 31.5026 18.0716 31.4638 21.2927 28.0838C22.8686 26.4285 23.8368 24.1862 23.8368 21.7224C23.8368 21.4899 23.8285 21.2601 23.8118 21.0332C23.6509 18.8628 22.7409 16.9029 21.337 15.4081C19.6475 13.6059 17.2421 12.4792 14.573 12.4792Z" fill="#1F5FFF"/>
</g>
<g id="Group_6">
<path id="Vector_5" fill-rule="evenodd" clip-rule="evenodd" d="M17.453 38.3321L28.2095 40.4609C29.2249 35.3839 26.5032 30.1519 21.5093 28.167C21.4371 28.1394 21.365 28.1117 21.2929 28.084C20.2081 27.6798 19.0955 27.4556 17.994 27.4031C15.2113 27.2647 12.4896 28.2004 10.3866 29.9693C9.53486 30.6807 8.78857 31.5306 8.17822 32.5022L17.453 38.3321Z" fill="#B1E4F9"/>
</g>
<g id="Group_7">
<path id="Vector_6" fill-rule="evenodd" clip-rule="evenodd" d="M26.7276 44.1647L17.4416 39.5334L6.69899 36.2087C5.68913 41.2802 8.41081 46.5094 13.3992 48.4915C14.7254 49.0174 16.096 49.2693 17.4415 49.2693H17.4609C20.8262 49.2666 24.0502 47.7052 26.1282 45.02C26.342 44.746 26.5417 44.4609 26.7276 44.1647Z" fill="#B1E4F9"/>
</g>
<g id="Group_8">
<path id="Vector_7" fill-rule="evenodd" clip-rule="evenodd" d="M16.8563 12.7644C18.9787 15.0289 21.7031 23.2866 16.3984 27.4417C16.9256 27.389 17.4583 27.3752 17.9937 27.4029C19.0952 27.4555 20.2077 27.6797 21.2926 28.0838C22.8685 26.4285 23.8367 24.1862 23.8367 21.7224C23.8367 21.4899 23.8284 21.2601 23.8117 21.0332C23.6508 18.8628 22.7408 16.9029 21.3369 15.4081C20.1439 14.1375 18.5985 13.2045 16.8563 12.7644Z" fill="#04CE78"/>
</g>
<g id="Group_9">
<path id="Vector_8" fill-rule="evenodd" clip-rule="evenodd" d="M26.7278 44.1647L21.5535 42.1079C21.448 42.4595 21.3344 42.8 21.2067 43.1377C20.2662 45.6513 18.7431 47.7772 16.8481 49.2527C17.0451 49.2638 17.2449 49.2693 17.4419 49.2693H17.4613C20.8267 49.2666 24.0506 47.7053 26.1286 45.02C26.3422 44.7461 26.5419 44.4609 26.7278 44.1647Z" fill="#04CE78"/>
</g>
<g id="Group_10">
<path id="Vector_9" fill-rule="evenodd" clip-rule="evenodd" d="M22.2386 38.0886L28.2092 40.4609C29.2246 35.384 26.5029 30.152 21.509 28.1671C21.4368 28.1395 21.3647 28.1117 21.2926 28.0841C20.5906 27.8211 19.8776 27.6356 19.1646 27.5249C19.5336 28.0121 19.8748 28.5298 20.1855 29.0779C21.4951 31.3839 22.2608 34.1854 22.2608 37.2056C22.2607 37.5017 22.2553 37.7951 22.2386 38.0886Z" fill="#04CE78"/>
</g>
<g id="Group_11">
<path id="Vector_10" fill-rule="evenodd" clip-rule="evenodd" d="M28.2094 40.4609L16.6594 35.8711L8.17793 32.5022C7.82832 33.0558 7.52314 33.651 7.2707 34.2822C7.01826 34.9189 6.82959 35.5611 6.69922 36.2088L19.0121 41.1003L26.7277 44.1648C27.0801 43.6084 27.3853 43.0104 27.6377 42.3765C27.8903 41.7454 28.0789 41.1031 28.2094 40.4609Z" fill="#04CE78"/>
</g>
<g id="Group_12">
<path id="Vector_11" fill-rule="evenodd" clip-rule="evenodd" d="M21.5537 42.1078L26.728 44.1646C27.0804 43.6082 27.3855 43.0103 27.638 42.3764C27.8904 41.7452 28.0791 41.1029 28.2095 40.4607L22.2389 38.0884C22.1696 39.4918 21.9338 40.8428 21.5537 42.1078Z" fill="#04CE78"/>
</g>
<g id="Group_13">
<path id="Vector_12" d="M43.9024 5.93729C42.3646 3.21531 39.8678 1.25838 36.8716 0.426934C36.8709 0.426739 36.8703 0.426641 36.8697 0.426446C30.6678 -1.29299 24.2169 2.34275 22.4903 8.53191L20.9547 14.0502C19.2222 12.6126 16.9971 11.7468 14.573 11.7468C12.1842 11.7468 9.8708 12.6028 8.05898 14.1573C7.75195 14.4207 7.7167 14.8831 7.97998 15.1901C8.24346 15.4971 8.70576 15.5324 9.01279 15.269C10.5593 13.9423 12.5339 13.2116 14.573 13.2116C19.2772 13.2116 23.1044 17.0296 23.1044 21.7223C23.1044 23.7565 22.3857 25.6951 21.0732 27.2322C17.3007 26.0044 13.2884 26.8074 10.3103 29.0938C7.66787 27.5721 6.04453 24.7892 6.04453 21.7223C6.04453 20.3436 6.36504 19.0265 6.99717 17.8075C7.1834 17.4484 7.04326 17.0063 6.68408 16.8201C6.3249 16.6339 5.88291 16.774 5.69668 17.1332C4.95547 18.5627 4.57959 20.1067 4.57959 21.7224C4.57959 25.1515 6.30947 28.2783 9.15596 30.107C8.07539 31.1902 7.19199 32.5033 6.59053 34.0107C5.43604 36.9054 5.479 40.0759 6.71123 42.9378C7.94561 45.8044 10.2248 48.0185 13.1291 49.1721C14.5434 49.7339 16.0031 50 17.44 50C20.8984 50 24.2216 48.4576 26.4475 45.7888C26.7794 45.8175 27.1115 45.8324 27.4433 45.8324C29.7205 45.8324 31.9721 45.1609 33.9039 43.8877C36.2563 42.3372 37.9655 39.9984 38.717 37.3021L39.9045 33.0363C40.0129 32.6467 39.785 32.2428 39.3953 32.1344C39.0059 32.0259 38.6018 32.2538 38.4933 32.6435L37.3059 36.9093C36.0756 41.3243 31.9707 44.3565 27.4624 44.3654C27.789 43.8255 28.0768 43.2529 28.3181 42.6482C29.4733 39.7553 29.4318 36.5867 28.2014 33.7262C27.0714 31.0993 25.0627 29.0201 22.499 27.801C23.7838 26.1377 24.5065 24.12 24.5651 22.0023L40.247 26.3516L39.4173 29.3299C39.3087 29.7195 39.5366 30.1234 39.9263 30.232C39.9921 30.2504 40.0582 30.2591 40.1232 30.2591C40.4438 30.2591 40.7382 30.047 40.8284 29.723L44.9929 14.7744C45.8238 11.7912 45.4366 8.65281 43.9024 5.93729ZM26.9576 42.1051C26.7986 42.5034 26.617 42.886 26.4151 43.2524L7.55342 35.76C7.66025 35.3532 7.79277 34.9504 7.95098 34.5535C8.10879 34.1579 8.28965 33.7783 8.48984 33.4141L27.3529 40.9087C27.2465 41.312 27.1147 41.7114 26.9576 42.1051ZM13.6699 47.8108C11.1296 46.8017 9.13613 44.8654 8.05664 42.3585C7.34951 40.7164 7.09033 38.9581 7.28096 37.228L25.5992 44.5046C22.8883 48.0617 18.0302 49.5428 13.6699 47.8108ZM26.8557 34.3049C27.5629 35.9489 27.8207 37.7094 27.6274 39.4414L9.30332 32.161C11.2446 29.6087 14.2904 28.1232 17.4664 28.1232C18.7235 28.1232 20.0014 28.3561 21.2387 28.8476C23.7819 29.8587 25.7768 31.7968 26.8557 34.3049ZM43.5816 14.381L40.6399 24.9403L24.4896 20.4611C24.2374 18.4745 23.3971 16.6683 22.1491 15.222L23.9014 8.92518C25.4111 3.51326 31.0549 0.334454 36.4779 1.83807H36.4782C39.0978 2.56463 41.2814 4.27635 42.627 6.65789C43.9687 9.0324 44.3075 11.7753 43.5816 14.381Z" fill="#000D44"/>
<path id="Vector_13" d="M16.9369 21.5525C17.3414 21.5525 17.6693 21.2246 17.6693 20.8201C17.6693 20.4156 17.3414 20.0876 16.9369 20.0876H16.9175C16.513 20.0876 16.1851 20.4156 16.1851 20.8201C16.1851 21.2246 16.513 21.5525 16.9175 21.5525H16.9369Z" fill="#000D44"/>
<path id="Vector_14" d="M14.8643 25.5361H14.8837C15.2882 25.5361 15.6161 25.2082 15.6161 24.8037C15.6161 24.3992 15.2882 24.0713 14.8837 24.0713H14.8643C14.4598 24.0713 14.1318 24.3992 14.1318 24.8037C14.1318 25.2082 14.4598 25.5361 14.8643 25.5361Z" fill="#000D44"/>
<path id="Vector_15" d="M10.9524 22.6128C11.3569 22.6128 11.6849 22.2849 11.6849 21.8804C11.6849 21.4759 11.3569 21.1479 10.9524 21.1479H10.9302C10.5257 21.1479 10.1978 21.4759 10.1978 21.8804C10.1978 22.2849 10.5257 22.6128 10.9302 22.6128H10.9524Z" fill="#000D44"/>
<path id="Vector_16" d="M13.6352 16.3892H13.6157C13.2112 16.3892 12.8833 16.7171 12.8833 17.1216C12.8833 17.5261 13.2112 17.854 13.6157 17.854H13.6352C14.0396 17.854 14.3676 17.5261 14.3676 17.1216C14.3676 16.7171 14.0397 16.3892 13.6352 16.3892Z" fill="#000D44"/>
</g>
</g>
</g>
</svg>
