<svg width="50" height="50" viewBox="0 0 50 50" fill="none" xmlns="http://www.w3.org/2000/svg">
<g id="icon" clip-path="url(#clip0_17_24978)">
<g id="Group">
<g id="Group_2">
<g id="Group_3">
<path id="Vector" d="M35.8764 30.2494L33.5411 26.5343C33.3172 26.178 33.3133 25.7259 33.5311 25.3658L34.404 23.9223C35.6517 21.8591 36.0392 19.3744 35.4155 17.0454C33.5313 10.0099 27.1114 4.8291 19.4814 4.8291H13.9736C6.66956 4.8292 0.746802 10.7432 0.732446 18.0438C0.726489 21.0939 1.8052 24.0474 3.70618 26.4327L6.12327 29.4658C6.74553 30.2467 6.98538 31.2651 6.77688 32.2415L4.14309 44.5806C4.07825 44.8845 4.30989 45.1708 4.62063 45.1708H18.4472C18.6825 45.1708 18.8844 45.0029 18.9273 44.7715L20.0155 38.9007L28.2032 40.4763C29.4569 40.777 30.7202 40.0179 31.0434 38.7699L32.1378 34.5437C32.225 34.2068 32.4503 33.9224 32.7582 33.7603L35.2916 32.426C36.0831 32.0092 36.3525 31.0068 35.8764 30.2494Z" fill="#04CE78"/>
<path id="Vector_2" d="M20.0118 38.9209L17.6798 38.4722C17.452 38.4284 17.2322 38.5784 17.1899 38.8064L16.0103 45.1708H18.4473C18.6826 45.1708 18.8845 45.0029 18.9273 44.7714L20.0118 38.9209Z" fill="#1F5FFF"/>
<path id="Vector_3" d="M35.8765 30.2494L33.5412 26.5342C33.3173 26.178 33.3134 25.7258 33.5312 25.3658L34.4041 23.9222C35.6687 21.8308 36.0366 19.3105 35.3906 16.9534C33.6141 10.4707 27.9809 5.58335 21.1113 4.90942C26.7054 6.44595 31.1109 10.8538 32.6429 16.4498C33.2878 18.8055 32.919 21.3242 31.6552 23.4142L30.7822 24.8578C30.5645 25.2178 30.5684 25.67 30.7923 26.0262L33.1275 29.7414C33.6036 30.4988 33.3343 31.5011 32.5428 31.9179L30.0094 33.2522C29.7015 33.4144 29.4763 33.6989 29.389 34.0357L28.2945 38.2619C28.0085 39.3663 26.9861 40.0872 25.8858 40.0301L28.2033 40.4761C29.4569 40.7768 30.7203 40.0178 31.0435 38.7698L32.1379 34.5436C32.2251 34.2067 32.4504 33.9222 32.7583 33.7601L35.2917 32.4259C36.0832 32.0091 36.3525 31.0068 35.8765 30.2494Z" fill="#1F5FFF"/>
<path id="Vector_4" d="M13.7133 21.4422V25.7048C13.7133 26.7302 13.2906 27.7103 12.5449 28.4141L12.0771 28.8555C11.2834 29.6046 10.8335 30.6477 10.8335 31.7391V35.7985H13.7133V33.4303C13.7133 31.9076 14.6381 30.5333 16.06 29.9434L18.3355 28.9993C19.7573 28.4093 20.6822 27.0351 20.6822 25.5124V18.8245L13.7133 21.4422Z" fill="#F9DBEB"/>
<path id="Vector_5" d="M19.3037 21.0375H26.4184C29.7354 21.0375 31.782 17.352 29.4126 15.4565C29.7812 12.0869 26.6468 9.92823 24.8707 10.1914C23.7263 8.08536 19.5142 7.45352 17.8294 8.45391C15.7234 6.76905 10.5635 8.08536 9.29995 10.6652C7.08862 11.1917 4.56147 14.0349 5.45649 16.4568C2.77134 18.7208 5.98296 26.1446 10.7216 25.0916C13.5647 26.25 19.1984 26.1974 19.3037 21.0375Z" fill="white"/>
<path id="Vector_6" d="M12.8232 25.627C15.7021 25.9984 19.2204 25.1049 19.3034 21.0374H17.6838C17.3141 21.0374 17.0041 21.3146 16.9598 21.6817C16.6517 24.2333 14.8355 25.3433 12.8232 25.627Z" fill="#1F5FFF"/>
<path id="Vector_7" d="M29.4126 15.4565C29.7812 12.0869 26.6468 9.92823 24.8706 10.1914C23.8328 8.28145 20.2721 7.58409 18.3613 8.2169C20.3896 8.53438 22.66 9.5837 23.0597 10.9727C24.8358 10.7094 27.9702 12.8681 27.6017 16.2378C29.971 18.1332 27.7612 21.0375 24.1191 21.0375H26.4185C29.7354 21.0375 31.7819 17.352 29.4126 15.4565Z" fill="#1F5FFF"/>
<g id="Group_4">
<path id="Vector_8" d="M49.279 21.3443C49.3668 20.4615 48.7224 19.6747 47.8397 19.5869C46.957 19.4991 46.1702 20.1435 46.0824 21.0262C45.9945 21.9089 46.6389 22.6957 47.5217 22.7835C48.4044 22.8714 49.1912 22.227 49.279 21.3443Z" fill="#04CE78"/>
<path id="Vector_9" d="M41.0461 24.9607C41.1339 24.078 40.4895 23.2912 39.6068 23.2034C38.7241 23.1155 37.9373 23.7599 37.8495 24.6427C37.7616 25.5254 38.406 26.3122 39.2887 26.4C40.1715 26.4878 40.9583 25.8434 41.0461 24.9607Z" fill="#04CE78"/>
<path id="Vector_10" d="M44.2614 16.7129C44.3493 15.8302 43.7049 15.0434 42.8221 14.9556C41.9394 14.8677 41.1526 15.5121 41.0648 16.3948C40.977 17.2776 41.6214 18.0644 42.5041 18.1522C43.3868 18.24 44.1736 17.5956 44.2614 16.7129Z" fill="#04CE78"/>
</g>
</g>
</g>
<g id="Group_5">
<path id="Vector_11" d="M23.6674 38.8574L20.1538 38.1813C19.9622 38.1447 19.7638 38.1855 19.6026 38.2955C19.4414 38.4055 19.3308 38.5752 19.2952 38.767L18.133 45.0371C18.0593 45.4349 18.322 45.817 18.7197 45.8907C18.7648 45.8991 18.8097 45.9031 18.854 45.9031C19.2001 45.9031 19.508 45.6568 19.5733 45.3041L20.6011 39.7591L23.3904 40.2959C23.7876 40.3718 24.1717 40.1122 24.248 39.7151C24.3244 39.3179 24.0645 38.934 23.6674 38.8574Z" fill="#000D44"/>
<path id="Vector_12" d="M21.4152 25.5127V21.7698H26.4186C28.4593 21.7698 30.3268 20.5096 30.9598 18.705C31.4203 17.3921 31.1238 16.0904 30.1702 15.1506C30.2378 13.5572 29.6334 12.069 28.4452 10.9253C27.5019 10.0173 26.3002 9.4667 25.2565 9.43867C24.6299 8.59482 23.5659 7.93711 22.2056 7.56259C20.6358 7.13047 19.0075 7.15673 17.8911 7.60976C16.7704 6.94912 15.1185 6.78632 13.3558 7.18115C11.3152 7.63808 9.60968 8.71894 8.80665 10.0428C7.35968 10.5036 5.91642 11.7279 5.13849 13.1811C4.58087 14.2227 4.4088 15.2722 4.63116 16.2455C3.91007 17.0781 3.61602 18.2896 3.80011 19.7159C3.85186 20.117 4.21915 20.4002 4.62022 20.3486C5.0214 20.2969 5.3047 19.9297 5.25294 19.5285C5.15147 18.7424 5.24552 18.0557 5.51085 17.5493C6.89757 18.7147 8.91183 19.1569 10.7601 18.4177C11.1357 18.2674 11.3183 17.8412 11.1681 17.4656C11.0179 17.09 10.5918 16.9072 10.216 17.0575C8.6256 17.6939 6.94327 17.0468 6.10831 16.0941C5.84581 15.2532 6.13321 14.4271 6.42999 13.8725C7.05646 12.7021 8.26798 11.696 9.39786 11.3976H9.6964C11.0236 11.3976 12.1034 12.4774 12.1034 13.8046V14.0945C12.1034 15.5493 13.287 16.733 14.7419 16.733H15.7126C16.1171 16.733 16.445 16.4052 16.445 16.0006C16.445 15.596 16.1171 15.2682 15.7126 15.2682H14.7419C14.0947 15.2682 13.5683 14.7417 13.5683 14.0945V13.8046C13.5683 12.0109 12.3422 10.4987 10.6843 10.0608C11.4002 9.41084 12.4699 8.88066 13.676 8.61054C15.037 8.30586 16.306 8.39834 17.0974 8.84316V10.6873C17.0974 12.378 18.4728 13.7534 20.1635 13.7534H21.9864C22.3909 13.7534 22.7189 13.4256 22.7189 13.021C22.7189 12.6164 22.3909 12.2886 21.9864 12.2886H20.1633C19.2803 12.2886 18.562 11.5703 18.562 10.6873V8.92265C19.3678 8.64336 20.6511 8.6541 21.8168 8.975C22.9822 9.2959 23.8608 9.8667 24.2274 10.5411C24.3741 10.8114 24.6742 10.9616 24.9782 10.9159C25.54 10.8328 26.546 11.1306 27.4293 11.9808C27.9573 12.4891 28.8026 13.5658 28.7015 15.1766L28.2071 15.8067C27.6754 16.4845 26.8764 16.8732 26.0149 16.8732H25.3922C24.9877 16.8732 24.6598 17.2011 24.6598 17.6057C24.6598 18.0103 24.9877 18.3381 25.3922 18.3381H26.0149C27.3292 18.3381 28.5483 17.745 29.3596 16.7109L29.456 16.5881C29.8276 17.2052 29.7098 17.8432 29.5775 18.2202C29.2253 19.2243 28.0865 20.3051 26.4186 20.3051C25.516 20.3051 20.1074 20.3051 19.3038 20.3051C18.9051 20.3051 18.5797 20.624 18.5715 21.0226C18.5419 22.4724 18.0193 23.5412 17.0183 24.1996C15.5306 25.178 13.1535 25.1259 11.4541 24.5784V22.5851C11.4541 21.3227 12.4812 20.2957 13.7435 20.2957H15.355C15.7595 20.2957 16.0874 19.9679 16.0874 19.5633C16.0874 19.1587 15.7595 18.8309 15.355 18.8309H13.7435C11.6734 18.8309 9.98927 20.515 9.98927 22.5851V24.4558C8.13702 24.5564 6.88233 23.0926 6.40108 22.409C6.16808 22.0782 5.71134 21.9988 5.38058 22.2317C5.04981 22.4646 4.97042 22.9215 5.20333 23.2522C6.60587 25.2442 8.62911 26.2029 10.6544 25.8515C11.3386 26.1064 12.1171 26.2837 12.9047 26.3719C12.7729 26.9441 12.4749 27.4733 12.0424 27.8815L11.5746 28.3229C10.6386 29.2061 10.1017 30.4513 10.1017 31.7394V35.7989C10.1017 36.2035 10.4296 36.5313 10.8341 36.5313C11.2386 36.5313 11.5665 36.2035 11.5665 35.7989V31.7394C11.5665 30.8528 11.9358 29.9959 12.5799 29.3883L13.0477 28.9469C13.7595 28.2751 14.2274 27.3834 14.3858 26.4276C17.2763 26.3072 19.4917 24.8583 19.9502 22.014V25.5128C19.9502 26.7422 19.2064 27.8451 18.0552 28.3227L15.7799 29.2669C14.0799 29.9722 12.9815 31.6065 12.9815 33.4308V35.7989C12.9815 36.2035 13.3094 36.5313 13.7139 36.5313C14.1184 36.5313 14.4463 36.2035 14.4463 35.7989V33.4308C14.4463 32.2008 15.19 31.0975 16.3413 30.6199L18.6166 29.6757C20.3168 28.9703 21.4152 27.3363 21.4152 25.5127Z" fill="#000D44"/>
<path id="Vector_13" d="M47.6612 18.8301C46.6274 18.8301 45.7487 19.5045 45.4405 20.4363H45.111L44.1928 18.2921C44.6776 17.8633 44.9842 17.2372 44.9842 16.5404C44.9842 15.2508 43.935 14.2017 42.6454 14.2017C41.3559 14.2017 40.3066 15.2508 40.3066 16.5404C40.3066 17.2642 40.6371 17.912 41.155 18.3414L39.5483 22.4489C39.51 22.447 39.4714 22.446 39.4326 22.446C39.2174 22.446 39.0092 22.4758 38.811 22.5305L37.6476 20.7656C37.512 20.5601 37.2823 20.4363 37.036 20.4363H36.3668C36.513 19.2401 36.4353 18.0227 36.1228 16.8559C34.1109 9.34355 27.2678 4.09668 19.4813 4.09668H13.9736C6.26846 4.09668 0 10.3652 0 18.0702C0 21.2217 1.08164 24.3144 3.04561 26.7789L5.55049 29.9222C6.03799 30.534 6.22393 31.3235 6.06064 32.0886L3.30078 45.0178C3.21641 45.4134 3.46855 45.8024 3.86426 45.8869C3.91582 45.8979 3.96719 45.9032 4.01787 45.9032C4.35605 45.9031 4.65996 45.6676 4.7335 45.3234L7.49336 32.3941C7.74854 31.1988 7.45801 29.965 6.69619 29.0092L4.19131 25.8659C2.43311 23.6598 1.46484 20.8913 1.46484 18.0702C1.46484 11.1729 7.07617 5.56152 13.9735 5.56152H19.4813C26.6058 5.56152 32.8672 10.3617 34.7078 17.2349C35.2704 19.3355 34.9312 21.6349 33.7771 23.5433L32.9042 24.9867C32.5409 25.5875 32.5475 26.3299 32.921 26.9239L35.2562 30.6392C35.3767 30.8308 35.4107 31.0566 35.352 31.2753C35.2932 31.4938 35.1506 31.6724 34.9503 31.7778L32.417 33.1121C31.9275 33.3698 31.5674 33.8246 31.4287 34.36L30.3343 38.5861C30.1127 39.4415 29.2332 39.9695 28.374 39.764C28.3633 39.7614 28.3524 39.759 28.3416 39.7569L27.028 39.5041C26.6304 39.4274 26.2468 39.6877 26.1704 40.085C26.0939 40.4821 26.354 40.8661 26.7512 40.9426L28.0496 41.1925C29.6746 41.5721 31.3334 40.5712 31.7524 38.9533L32.8469 34.7271C32.8823 34.5903 32.9744 34.474 33.0995 34.4081L35.6328 33.0738C36.19 32.7804 36.6032 32.2633 36.7666 31.6553C36.93 31.0471 36.8314 30.3926 36.4963 29.8596L34.161 26.1442C34.084 26.0217 34.0827 25.8687 34.1576 25.7446L35.0305 24.3012C35.4877 23.5451 35.8356 22.7362 36.0715 21.9012H36.6416L37.5925 23.3437C37.2805 23.7411 37.0937 24.2414 37.0937 24.7848C37.0937 26.0744 38.1429 27.1235 39.4324 27.1235C40.7221 27.1235 41.7713 26.0744 41.7713 24.7848C41.7713 24.0572 41.4373 23.4062 40.9146 22.977L42.5188 18.8757C42.6276 18.8815 42.7249 18.8805 42.8465 18.8699L43.9545 21.457C44.0699 21.7264 44.3348 21.9011 44.6278 21.9011H45.4403C45.7484 22.833 46.6272 23.5075 47.6611 23.5075C48.9508 23.5075 49.9999 22.4584 49.9999 21.1688C49.9999 19.8791 48.9508 18.8301 47.6612 18.8301ZM39.4326 25.6588C38.9507 25.6588 38.5587 25.2667 38.5587 24.7849C38.5587 24.3051 38.9495 23.9109 39.4326 23.9109C39.9146 23.9109 40.3066 24.303 40.3066 24.7849C40.3066 25.2667 39.9146 25.6588 39.4326 25.6588ZM42.6454 15.6666C43.1273 15.6666 43.5193 16.0587 43.5193 16.5405C43.5193 17.0224 43.1272 17.4145 42.6454 17.4145C42.1636 17.4145 41.7715 17.0224 41.7715 16.5405C41.7715 16.0587 42.1635 15.6666 42.6454 15.6666ZM47.6612 22.0429C47.1793 22.0429 46.7872 21.6508 46.7872 21.1689C46.7872 20.6871 47.1793 20.295 47.6612 20.295C48.1432 20.295 48.5352 20.6871 48.5352 21.1689C48.5352 21.6508 48.1431 22.0429 47.6612 22.0429Z" fill="#000D44"/>
</g>
</g>
</g>
<defs>
<clipPath id="clip0_17_24978">
<rect width="50" height="50" fill="white"/>
</clipPath>
</defs>
</svg>
