<svg width="50" height="50" viewBox="0 0 50 50" fill="none" xmlns="http://www.w3.org/2000/svg">
<g id="icon" clip-path="url(#clip0_17_25069)">
<g id="Group">
<g id="Group_2">
<g id="Group_3">
<path id="Vector" d="M29.3046 41.3299C28.8283 41.3111 28.3671 41.0748 28.0782 40.6505C27.5944 39.9399 27.7781 38.9716 28.4888 38.4878C29.8693 37.5478 30.9774 36.0913 31.6091 34.3864C33.725 28.677 29.5695 25.8501 28.9164 20.8113C28.3042 16.0859 31.5236 11.3749 36.1544 10.217C36.9886 10.0087 37.8336 10.5154 38.0421 11.3494C38.2507 12.1834 37.7437 13.0286 36.9097 13.2371C33.811 14.0119 31.5944 17.2524 32.0039 20.4112C32.3378 22.9892 34.2119 25.4481 34.9672 28.4571C36.133 33.1017 34.1453 38.4025 30.2411 41.0611C29.9546 41.256 29.6263 41.3426 29.3046 41.3299Z" fill="#1F5FFF"/>
<path id="Vector_2" d="M20.6955 41.3299C21.1718 41.3111 21.633 41.0748 21.9219 40.6505C22.4058 39.9399 22.222 38.9716 21.5113 38.4878C20.1309 37.5478 19.0228 36.0913 18.391 34.3864C16.2751 28.677 20.4307 25.8501 21.0837 20.8113C21.6959 16.0859 18.4765 11.3749 13.8457 10.217C13.0115 10.0087 12.1665 10.5154 11.958 11.3494C11.7494 12.1834 12.2565 13.0286 13.0904 13.2371C16.1892 14.0119 18.4057 17.2524 17.9962 20.4112C17.6623 22.9892 15.7882 25.4481 15.0329 28.4571C13.8671 33.1017 15.8548 38.4025 19.759 41.0611C20.0455 41.256 20.3738 41.3426 20.6955 41.3299Z" fill="#1F5FFF"/>
<path id="Vector_3" d="M40.7448 0.939697H39.9244C37.6329 0.939697 35.7133 2.75728 35.6811 5.04858C35.665 6.19341 36.11 7.23364 36.8423 7.99604C37.0215 8.18257 37.0208 8.47896 36.8417 8.66548C36.1226 9.4145 35.6807 10.4314 35.6807 11.5521C35.6807 12.6721 36.1226 13.6889 36.8417 14.4379C37.0208 14.6246 37.0215 14.9208 36.8423 15.1074C36.11 15.8698 35.665 16.91 35.6811 18.0548C35.7134 20.3461 37.6329 22.1637 39.9244 22.1637H40.7449C45.054 22.1637 49.2676 17.4122 49.2676 11.5521C49.2676 5.69204 45.0539 0.939697 40.7448 0.939697Z" fill="#04CE78"/>
<path id="Vector_4" d="M40.7448 0.939697H39.8497C39.5445 0.939697 39.2475 0.973389 38.9609 1.03569C42.8738 1.73335 46.4199 6.17632 46.4199 11.5523C46.4199 16.9282 42.8738 21.3705 38.961 22.068C39.2476 22.1302 39.5446 22.1639 39.8498 22.1639H40.7449C45.0541 22.1639 49.2677 17.4124 49.2677 11.5523C49.2676 5.69204 45.054 0.939697 40.7448 0.939697Z" fill="#1F5FFF"/>
<path id="Vector_5" d="M9.25527 0.939697H10.0756C12.3671 0.939697 14.2867 2.75728 14.3189 5.04858C14.3351 6.19341 13.89 7.23364 13.1577 7.99604C12.9785 8.18257 12.9792 8.47896 13.1583 8.66548C13.8774 9.4145 14.3193 10.4314 14.3193 11.5521C14.3193 12.6721 13.8774 13.6889 13.1583 14.4378C12.9792 14.6245 12.9785 14.9208 13.1577 15.1073C13.89 15.8697 14.3351 16.9099 14.3189 18.0548C14.2866 20.3461 12.3671 22.1637 10.0756 22.1637H9.25518C4.946 22.1637 0.732422 17.4122 0.732422 11.5521C0.732422 5.69204 4.94609 0.939697 9.25527 0.939697Z" fill="#04CE78"/>
<path id="Vector_6" d="M14.3193 11.5522C14.3193 10.4314 13.8774 9.4145 13.1583 8.66558C12.9792 8.47896 12.9785 8.18267 13.1577 7.99614C13.89 7.23374 14.3352 6.19341 14.3189 5.04849C14.287 2.78774 12.3365 0.939697 10.0755 0.939697H9.25518C8.89912 0.939697 8.54375 0.972803 8.19141 1.03569C10.0666 1.44312 11.4717 3.11177 11.4717 5.10884C11.4717 6.22964 11.0298 7.24653 10.3106 7.99546C10.1313 8.18228 10.1313 8.47866 10.3106 8.66548C11.0298 9.4145 11.4717 10.4314 11.4717 11.5522C11.4717 12.6722 11.0298 13.689 10.3106 14.438C10.1313 14.6249 10.1313 14.9212 10.3106 15.1081C11.0298 15.8571 11.4717 16.874 11.4717 17.9948C11.4717 19.9918 10.0665 21.6604 8.19141 22.0679C8.54385 22.1307 8.89922 22.1638 9.25527 22.1638H10.0757C12.3369 22.1638 14.2873 20.3157 14.319 18.0546C14.3351 16.9099 13.8901 15.8698 13.1578 15.1074C12.9786 14.9208 12.9793 14.6245 13.1584 14.4379C13.8774 13.689 14.3193 12.6722 14.3193 11.5522Z" fill="#1F5FFF"/>
<path id="Vector_7" d="M33.8507 36.9577C33.4753 34.5642 29.8882 33.0105 25.0003 33.0105C20.1124 33.0105 16.5253 34.5642 16.1499 36.9577C15.7719 39.3671 18.7688 43.0881 22.6031 44.2679C23.0247 44.3976 23.3098 44.7906 23.3098 45.2317V47.3222C23.3098 48.2325 24.0093 49.0157 24.9185 49.0584C25.8892 49.1041 26.6907 48.3306 26.6907 47.37V45.2317C26.6907 44.7906 26.9759 44.3977 27.3974 44.2679C31.2317 43.0881 34.2286 39.3671 33.8507 36.9577Z" fill="#04CE78"/>
<path id="Vector_8" d="M33.8505 36.9575C33.5304 34.9167 30.8745 33.4874 27.069 33.1101C29.7733 33.8477 31.573 35.3005 31.8329 36.9575C32.2108 39.3669 29.214 42.2577 25.3797 43.4374C24.9581 43.5671 24.6729 43.9601 24.6729 44.4012V47.3697C24.6729 47.922 24.4072 48.4115 23.9976 48.7199C24.2561 48.9174 24.5718 49.0418 24.9184 49.0582C25.8891 49.1039 26.6905 48.3303 26.6905 47.3697V45.2314C26.6905 44.7903 26.9757 44.3973 27.3973 44.2676C31.2315 43.0879 34.2284 39.3669 33.8505 36.9575Z" fill="#1F5FFF"/>
</g>
</g>
<path id="Vector_9" d="M47.1861 3.58101C45.4089 1.43696 43.0611 0.207275 40.7449 0.207275H39.9246C37.2186 0.207275 34.9864 2.37437 34.9488 5.03823C34.9316 6.25874 35.3586 7.4189 36.1557 8.33052C35.7967 8.74136 35.5135 9.20386 35.3112 9.69936C32.3898 10.6532 29.9799 12.9566 28.8197 15.9291C28.6726 16.3058 28.8588 16.7305 29.2357 16.8776C29.3232 16.9118 29.4132 16.928 29.5019 16.928C29.7948 16.928 30.0714 16.7509 30.1843 16.4617C31.0751 14.1793 32.8134 12.3562 34.9517 11.4051C34.9339 12.0094 35.0228 12.5777 35.2038 13.1164C32.556 14.5167 30.8967 17.5644 31.2776 20.5054C31.4715 22.0021 32.1163 23.3977 32.799 24.8753C33.3521 26.0724 33.9239 27.3101 34.2564 28.6355C34.784 30.7374 34.6276 33.0561 33.8407 35.189C33.4998 34.75 33.0527 34.3526 32.5102 34.0027C33.5861 30.4745 32.4085 27.9386 31.2661 25.4829C30.5805 24.0089 29.8716 22.4849 29.6424 20.7181C29.5924 20.3303 29.5697 19.9385 29.5751 19.5533C29.5808 19.1488 29.2573 18.8164 28.8528 18.8108C28.8494 18.8107 28.846 18.8107 28.8426 18.8107C28.4428 18.8107 28.116 19.132 28.1105 19.533C28.1042 19.9873 28.1308 20.449 28.1897 20.9059C28.448 22.8976 29.2055 24.5258 29.938 26.1005C31.021 28.4286 31.9666 30.4653 31.1836 33.3194C29.5663 32.6515 27.4526 32.2782 25.0001 32.2782C22.5475 32.2782 20.4337 32.6516 18.8163 33.3196C18.5564 32.3703 18.4736 31.4584 18.5647 30.5519C18.6052 30.1495 18.3117 29.7904 17.9093 29.7499C17.5073 29.7102 17.1478 30.003 17.1073 30.4054C16.9882 31.591 17.1135 32.7735 17.4892 34.0032C16.947 34.353 16.5002 34.7502 16.1595 35.1891C15.3727 33.0561 15.2163 30.7375 15.7438 28.6355C16.0763 27.3102 16.6481 26.0724 17.2012 24.8754C17.8839 23.3978 18.5287 22.0021 18.7227 20.5054C19.1037 17.5645 17.4443 14.5167 14.7965 13.1164C14.9803 12.5697 15.0663 12.0006 15.0486 11.4041C18.581 12.9729 20.8593 16.8457 20.3578 20.7174C20.1281 22.4857 19.4189 24.0103 18.7331 25.4846C18.5223 25.9378 18.3043 26.4064 18.1042 26.874C17.945 27.2458 18.1174 27.6764 18.4892 27.8356C18.8611 27.9948 19.2915 27.8224 19.4508 27.4506C19.6421 27.0039 19.8457 26.5661 20.0613 26.1025C20.794 24.5274 21.5517 22.8987 21.8105 20.9058C22.438 16.0607 19.3298 11.2153 14.689 9.69936C14.4867 9.20405 14.2036 8.74155 13.8446 8.33071C14.6417 7.4189 15.0687 6.25874 15.0515 5.03853C15.014 2.37476 12.7818 0.207471 10.0758 0.207471H9.25547C6.93926 0.207471 4.5915 1.43716 2.81426 3.5812C0.999317 5.77017 0 8.60103 0 11.5522C0 14.5034 0.999316 17.334 2.81396 19.523C4.59121 21.6667 6.93887 22.8962 9.25518 22.8962H10.0755C12.7815 22.8962 15.0137 20.7291 15.0512 18.0652C15.0685 16.845 14.6415 15.6849 13.8443 14.7729C13.9443 14.6584 14.0384 14.5399 14.1267 14.4178C16.2454 15.5405 17.5733 17.9726 17.2696 20.3168C17.1046 21.5911 16.5055 22.8878 15.8712 24.2607C15.2898 25.5191 14.6887 26.8202 14.3228 28.2788C13.6056 31.1366 13.998 34.3373 15.3967 37.0976C15.2901 38.4398 15.9515 40.0457 17.2404 41.5502C18.5961 43.1328 20.4722 44.3785 22.3875 44.9678C22.4992 45.0022 22.5771 45.1106 22.5771 45.2315V47.3219C22.5771 48.6449 23.5903 49.7289 24.8839 49.7898C26.2902 49.8577 27.4229 48.7282 27.4229 47.3698V45.2315C27.4229 45.1106 27.5009 45.0021 27.6126 44.9677C29.5278 44.3785 31.4039 43.1329 32.7596 41.5502C34.0485 40.0457 34.7098 38.4398 34.6033 37.0976C36.002 34.3372 36.3943 31.1365 35.6772 28.2787C34.9049 25.2003 33.0432 22.7325 32.7302 20.3168C32.4266 17.9726 33.7546 15.5405 35.8732 14.4178C35.9615 14.5399 36.0556 14.6584 36.1556 14.773C35.3585 15.6848 34.9315 16.8449 34.9487 18.0652C34.9863 20.7291 37.2184 22.8962 39.9244 22.8962H40.7448C43.0611 22.8962 45.4088 21.6667 47.1859 19.523C49.0007 17.334 50 14.5034 50 11.5522C50 8.60103 49.0007 5.77017 47.1861 3.58101ZM12.6295 15.6148C13.2596 16.2708 13.5994 17.1337 13.5866 18.0447C13.5603 19.9122 11.9853 21.4315 10.0756 21.4315H9.25527C7.37646 21.4315 5.43984 20.3952 3.9418 18.5882C2.34443 16.6615 1.46484 14.1627 1.46484 11.5522C1.46484 8.94165 2.34443 6.44282 3.9417 4.51587C5.43975 2.70854 7.37637 1.67212 9.25518 1.67212H10.0755C11.9852 1.67212 13.5603 3.19146 13.5865 5.05894C13.5993 5.96987 13.2595 6.83276 12.6295 7.48872C12.1761 7.96069 12.1763 8.70044 12.63 9.1728C13.9062 10.502 13.9063 12.6012 12.63 13.9308C12.1765 14.4033 12.1763 15.143 12.6295 15.6148ZM31.6471 40.5973C30.4668 41.975 28.8393 43.0578 27.1817 43.5677C26.4497 43.793 25.9579 44.4616 25.9579 45.2316V47.3699C25.9579 47.9134 25.5076 48.3511 24.9527 48.3268C24.4505 48.3031 24.042 47.8525 24.042 47.3221V45.2317C24.042 44.4617 23.5502 43.7931 22.8182 43.5679C21.1606 43.0579 19.5331 41.9751 18.3528 40.5974C17.293 39.3603 16.7261 38.0091 16.8732 37.0712C17.1806 35.1117 20.5225 33.743 25 33.743C29.4775 33.743 32.8194 35.1117 33.1269 37.0712C33.2739 38.009 32.7069 39.3602 31.6471 40.5973ZM46.0583 18.5881C44.5604 20.3951 42.6236 21.4314 40.7449 21.4314H39.9245C38.0148 21.4314 36.4398 19.9121 36.4135 18.0446C36.4007 17.1335 36.7406 16.2707 37.3708 15.6146C37.8238 15.1427 37.8236 14.4032 37.37 13.9306C36.0915 12.5993 36.0961 10.4995 37.3701 9.1727C37.8236 8.70034 37.8238 7.96069 37.3706 7.48853C36.7406 6.83276 36.4007 5.96987 36.4135 5.05874C36.4399 3.19136 38.0148 1.67202 39.9246 1.67202H40.7449C42.6236 1.67202 44.5603 2.70845 46.0583 4.51577C47.6555 6.44282 48.5352 8.94165 48.5352 11.5522C48.5352 14.1627 47.6555 16.6615 46.0583 18.5881Z" fill="#000D44"/>
</g>
</g>
<defs>
<clipPath id="clip0_17_25069">
<rect width="50" height="50" fill="white"/>
</clipPath>
</defs>
</svg>
