<svg width="106" height="193" viewBox="0 0 106 193" fill="none" xmlns="http://www.w3.org/2000/svg">
<path fill-rule="evenodd" clip-rule="evenodd" d="M34.2444 41.7817L34.9447 41.1537C37.5517 38.7931 40.9431 37.4858 44.4601 37.4858C47.977 37.4858 51.3684 38.7931 53.9754 41.1537L75.083 60.0878L90.6602 74.071C93.4849 76.5562 95.2067 80.0617 95.4467 83.8164C95.6868 87.571 94.4255 91.2672 91.9403 94.0919C89.4551 96.9166 85.9495 98.6383 82.1948 98.8783C78.4402 99.1184 74.744 97.8571 71.9193 95.3719L34.5342 63.0825C33.0014 61.7728 31.7655 60.1511 30.9092 58.3259C30.0529 56.5006 29.5959 54.5136 29.5685 52.4977C29.541 50.4817 29.9439 48.4831 30.7502 46.6352C31.5565 44.7873 32.7478 43.1326 34.2444 41.7817Z" fill="url(#paint0_linear_17_24551)"/>
<path fill-rule="evenodd" clip-rule="evenodd" d="M75.0831 59.9912L90.6602 73.9744C93.4849 76.4596 95.2067 79.9651 95.4467 83.7198C95.6868 87.4744 94.4255 91.1706 91.9403 93.9953C89.4551 96.82 85.9495 98.5417 82.1948 98.7818C78.4402 99.0218 74.744 97.7605 71.9193 95.2753L57.429 82.8377C73.9963 72.7911 75.0831 59.9912 75.0831 59.9912Z" fill="url(#paint1_linear_17_24551)"/>
<path style="mix-blend-mode:screen" opacity="0.5" fill-rule="evenodd" clip-rule="evenodd" d="M73.175 96.2415C73.175 96.2415 79.0194 90.397 65.1328 77.1141C56.1264 68.9162 44.9657 63.4616 32.9641 61.3921C32.9641 61.3921 53.782 79.6258 73.175 96.2415Z" fill="url(#paint2_linear_17_24551)"/>
<path style="mix-blend-mode:screen" opacity="0.5" fill-rule="evenodd" clip-rule="evenodd" d="M88.9697 73.4914C88.9697 73.4914 82.594 72.9118 71.8953 63.6621C65.8697 58.7553 61.1285 52.4559 58.0811 45.3076L88.9697 73.4914Z" fill="url(#paint3_linear_17_24551)"/>
<path fill-rule="evenodd" clip-rule="evenodd" d="M50.5941 41.2746C49.502 40.041 48.0012 39.2434 46.3677 39.0286C45.6787 38.8756 44.9594 38.9344 44.3044 39.1973C43.6493 39.4601 43.0889 39.9149 42.6968 40.5018C43.1309 41.117 43.6926 41.6315 44.3434 42.0102C44.9943 42.3889 45.7191 42.6229 46.4685 42.6962C47.218 42.7695 47.9743 42.6805 48.6862 42.4352C49.3982 42.1899 50.0489 41.794 50.5941 41.2746Z" fill="white"/>
<path fill-rule="evenodd" clip-rule="evenodd" d="M30.6702 14.1293C30.914 17.1584 30.2537 20.1917 28.7731 22.8455C27.2924 25.4993 25.0578 27.6542 22.352 29.0376C19.6463 30.421 16.5911 30.9707 13.5728 30.6171C10.5546 30.2635 7.70896 29.0226 5.39618 27.0514C3.08341 25.0801 1.40732 22.4671 0.580061 19.543C-0.2472 16.6188 -0.188431 13.515 0.748838 10.6243C1.68611 7.73356 3.45979 5.1858 5.84547 3.30342C8.23115 1.42104 11.1216 0.288628 14.1511 0.0494815C16.1606 -0.112329 18.1823 0.123632 20.1004 0.7439C22.0186 1.36417 23.7956 2.35657 25.3299 3.6643C26.8642 4.97203 28.1256 6.56942 29.042 8.36511C29.9583 10.1608 30.5116 12.1196 30.6702 14.1293Z" fill="url(#paint4_radial_17_24551)"/>
<path fill-rule="evenodd" clip-rule="evenodd" d="M27.2408 9.6853C27.065 8.04208 26.2915 6.52079 25.0673 5.41067C24.5957 4.88646 23.976 4.51794 23.2902 4.35404C22.6044 4.19014 21.8849 4.23859 21.2273 4.49293C21.23 5.24599 21.3942 5.98971 21.7089 6.67388C22.0235 7.35805 22.4814 7.96675 23.0514 8.4589C23.6214 8.95106 24.2903 9.3152 25.0131 9.52677C25.7358 9.73834 26.4954 9.79239 27.2408 9.6853Z" fill="white"/>
<path fill-rule="evenodd" clip-rule="evenodd" d="M43.2523 181.179C43.4182 183.218 42.9752 185.261 41.9797 187.048C40.9841 188.835 39.4807 190.286 37.6597 191.218C35.8387 192.15 33.7821 192.521 31.7503 192.284C29.7184 192.046 27.8027 191.211 26.2456 189.884C24.6886 188.558 23.5604 186.799 23.0036 184.83C22.4469 182.862 22.4868 180.772 23.1183 178.826C23.7498 176.881 24.9444 175.166 26.5509 173.9C28.1575 172.633 30.1037 171.872 32.1431 171.712C34.8708 171.499 37.5718 172.375 39.6542 174.15C41.7367 175.924 43.0306 178.452 43.2523 181.179Z" fill="url(#paint5_radial_17_24551)"/>
<path fill-rule="evenodd" clip-rule="evenodd" d="M40.9586 178.185C40.8222 177.09 40.2997 176.079 39.4853 175.335C39.1633 174.989 38.7468 174.745 38.2875 174.633C37.8281 174.522 37.346 174.547 36.9011 174.707C36.9023 175.214 37.0129 175.715 37.2254 176.176C37.4379 176.637 37.7474 177.046 38.1325 177.376C38.5177 177.706 38.9695 177.949 39.4573 178.089C39.945 178.229 40.4571 178.261 40.9586 178.185Z" fill="white"/>
<path fill-rule="evenodd" clip-rule="evenodd" d="M105.054 46.3702C105.27 49.0692 104.68 51.7716 103.36 54.1357C102.04 56.4998 100.049 58.4196 97.6386 59.6523C95.2279 60.8851 92.5058 61.3755 89.8165 61.0616C87.1271 60.7476 84.5911 59.6434 82.5291 57.8886C80.4671 56.1337 78.9717 53.8069 78.2318 51.2023C77.492 48.5978 77.5409 45.8323 78.3723 43.2555C79.2038 40.6787 80.7804 38.4063 82.9031 36.7253C85.0258 35.0444 87.5992 34.0306 90.298 33.8118C92.0917 33.6665 93.8964 33.8761 95.609 34.4287C97.3216 34.9813 98.9086 35.8661 100.279 37.0324C101.649 38.1988 102.777 39.6238 103.596 41.226C104.415 42.8283 104.911 44.5763 105.054 46.3702Z" fill="url(#paint6_radial_17_24551)"/>
<path fill-rule="evenodd" clip-rule="evenodd" d="M102.011 42.3369C101.843 40.8698 101.148 39.5136 100.055 38.5211C99.6342 38.0522 99.0794 37.7242 98.4658 37.5816C97.8523 37.439 97.2098 37.4888 96.6255 37.7241C96.651 38.3896 96.8138 39.0425 97.1037 39.642C97.3936 40.2415 97.8043 40.7746 98.31 41.2077C98.8158 41.6409 99.4055 41.9648 100.042 42.1592C100.679 42.3535 101.35 42.414 102.011 42.3369Z" fill="white"/>
<defs>
<linearGradient id="paint0_linear_17_24551" x1="92.3374" y1="93.4089" x2="33.4692" y2="42.5593" gradientUnits="userSpaceOnUse">
<stop stop-color="#FF6E27"/>
<stop offset="1" stop-color="#E03347"/>
</linearGradient>
<linearGradient id="paint1_linear_17_24551" x1="92.1638" y1="93.6099" x2="65.7727" y2="70.8136" gradientUnits="userSpaceOnUse">
<stop stop-color="#FFCB34"/>
<stop offset="1" stop-color="#FF9A47"/>
</linearGradient>
<linearGradient id="paint2_linear_17_24551" x1="59.199" y1="71.7736" x2="53.1052" y2="78.8283" gradientUnits="userSpaceOnUse">
<stop offset="0.36"/>
<stop offset="1" stop-color="#E5EFE5"/>
</linearGradient>
<linearGradient id="paint3_linear_17_24551" x1="88.2265" y1="74.4121" x2="56.6084" y2="47.1008" gradientUnits="userSpaceOnUse">
<stop/>
<stop offset="1" stop-color="#E5EFE5"/>
</linearGradient>
<radialGradient id="paint4_radial_17_24551" cx="0" cy="0" r="1" gradientUnits="userSpaceOnUse" gradientTransform="translate(26.921 12.2166) rotate(-4.5739) scale(22.5077 22.5076)">
<stop stop-color="#FFE534"/>
<stop offset="0.8" stop-color="#FF9A47"/>
<stop offset="0.98" stop-color="#FFB83D"/>
</radialGradient>
<radialGradient id="paint5_radial_17_24551" cx="0" cy="0" r="1" gradientUnits="userSpaceOnUse" gradientTransform="translate(15337.1 6180.89) scale(129.205 129.206)">
<stop stop-color="#FFE534"/>
<stop offset="0.8" stop-color="#FF9A47"/>
<stop offset="0.98" stop-color="#FFB83D"/>
</radialGradient>
<radialGradient id="paint6_radial_17_24551" cx="0" cy="0" r="1" gradientUnits="userSpaceOnUse" gradientTransform="translate(21163.9 6515.96) scale(227.037 227.037)">
<stop stop-color="#FFE534"/>
<stop offset="0.8" stop-color="#FF9A47"/>
<stop offset="0.98" stop-color="#FFB83D"/>
</radialGradient>
</defs>
</svg>
