<svg width="202" height="287" viewBox="0 0 202 287" fill="none" xmlns="http://www.w3.org/2000/svg">
<g opacity="0.35">
<path d="M171.276 97.7255C171.475 97.7255 171.674 97.7483 171.862 97.7881L185.642 73.9442C185.186 73.4492 184.896 72.7893 184.896 72.0667C184.896 70.5306 186.142 69.2847 187.684 69.2847C188.924 69.2847 189.96 70.0982 190.324 71.2133H217.957C218.321 70.0982 219.356 69.2847 220.597 69.2847C222.133 69.2847 223.384 70.5306 223.384 72.0667C223.384 72.7836 223.106 73.4322 222.656 73.9271L236.447 97.7938C236.635 97.7539 236.834 97.7312 237.033 97.7312C238.569 97.7312 239.821 98.9771 239.821 100.513C239.821 102.049 238.575 103.295 237.033 103.295C236.834 103.295 236.635 103.273 236.447 103.233L222.656 127.099C223.1 127.594 223.384 128.243 223.384 128.96C223.384 130.496 222.138 131.742 220.597 131.742C219.356 131.742 218.321 130.928 217.957 129.813H190.324C189.96 130.928 188.924 131.742 187.684 131.742C186.148 131.742 184.896 130.496 184.896 128.96C184.896 128.232 185.181 127.577 185.642 127.082L171.862 103.238C171.674 103.278 171.475 103.301 171.276 103.301C169.74 103.301 168.488 102.055 168.488 100.519C168.488 98.9715 169.74 97.7255 171.276 97.7255ZM187.684 126.166C188.924 126.166 189.96 126.98 190.324 128.095H217.957C218.321 126.98 219.356 126.166 220.597 126.166C220.796 126.166 220.995 126.189 221.183 126.229L234.974 102.362C234.53 101.867 234.245 101.219 234.245 100.502C234.245 99.785 234.524 99.1364 234.974 98.6415L221.177 74.7748C220.989 74.8147 220.79 74.8374 220.591 74.8374C219.351 74.8374 218.315 74.0239 217.951 72.9088H190.318C189.954 74.0239 188.919 74.8374 187.678 74.8374C187.485 74.8374 187.297 74.8203 187.121 74.7805L173.33 98.6358C173.774 99.1308 174.058 99.7793 174.058 100.496C174.058 101.213 173.779 101.862 173.33 102.357L187.121 126.212C187.308 126.183 187.491 126.166 187.684 126.166Z" fill="#A0BCD0" fill-opacity="0.25"/>
<path d="M114.764 193.175C114.963 193.175 115.163 193.198 115.35 193.238L129.13 169.394C128.675 168.899 128.385 168.239 128.385 167.516C128.385 165.98 129.63 164.734 131.172 164.734C132.413 164.734 133.448 165.548 133.812 166.663H161.445C161.809 165.548 162.845 164.734 164.085 164.734C165.621 164.734 166.873 165.98 166.873 167.516C166.873 168.233 166.594 168.882 166.144 169.377L179.935 193.243C180.123 193.203 180.322 193.181 180.521 193.181C182.057 193.181 183.309 194.427 183.309 195.963C183.309 197.499 182.063 198.745 180.521 198.745C180.322 198.745 180.123 198.722 179.935 198.682L166.144 222.549C166.588 223.044 166.873 223.692 166.873 224.409C166.873 225.945 165.627 227.191 164.085 227.191C162.845 227.191 161.809 226.378 161.445 225.263H133.812C133.448 226.378 132.413 227.191 131.172 227.191C129.636 227.191 128.385 225.945 128.385 224.409C128.385 223.681 128.669 223.027 129.13 222.532L115.35 198.688C115.163 198.728 114.963 198.751 114.764 198.751C113.228 198.751 111.977 197.505 111.977 195.968C111.977 194.421 113.223 193.175 114.764 193.175ZM131.172 221.616C132.413 221.616 133.448 222.429 133.812 223.545H161.445C161.809 222.429 162.845 221.616 164.085 221.616C164.284 221.616 164.483 221.639 164.671 221.678L178.462 197.812C178.018 197.317 177.734 196.668 177.734 195.951C177.734 195.235 178.012 194.586 178.462 194.091L164.665 170.224C164.477 170.264 164.278 170.287 164.079 170.287C162.839 170.287 161.804 169.473 161.439 168.358H133.806C133.442 169.473 132.407 170.287 131.167 170.287C130.973 170.287 130.785 170.27 130.609 170.23L116.818 194.085C117.262 194.58 117.546 195.229 117.546 195.946C117.546 196.663 117.268 197.311 116.818 197.806L130.609 221.661C130.791 221.633 130.979 221.616 131.172 221.616Z" fill="#A0BCD0" fill-opacity="0.25"/>
<path d="M58.6281 225.991C58.8272 225.991 59.0264 226.014 59.2141 226.054L72.9936 202.21C72.5385 201.715 72.2483 201.055 72.2483 200.332C72.2483 198.796 73.4943 197.55 75.0361 197.55C76.2764 197.55 77.3118 198.364 77.6759 199.479H105.309C105.673 198.364 106.708 197.55 107.949 197.55C109.485 197.55 110.736 198.796 110.736 200.332C110.736 201.049 110.458 201.698 110.008 202.193L123.799 226.059C123.987 226.02 124.186 225.997 124.385 225.997C125.921 225.997 127.173 227.243 127.173 228.779C127.173 230.315 125.927 231.561 124.385 231.561C124.186 231.561 123.987 231.538 123.799 231.498L110.008 255.365C110.452 255.86 110.736 256.509 110.736 257.225C110.736 258.762 109.491 260.007 107.949 260.007C106.708 260.007 105.673 259.194 105.309 258.079H77.6759C77.3118 259.194 76.2764 260.007 75.0361 260.007C73.5 260.007 72.2483 258.762 72.2483 257.225C72.2483 256.497 72.5328 255.843 72.9936 255.348L59.2141 231.504C59.0264 231.544 58.8272 231.567 58.6281 231.567C57.092 231.567 55.8403 230.321 55.8403 228.785C55.8403 227.237 57.092 225.991 58.6281 225.991ZM75.0361 254.432C76.2764 254.432 77.3118 255.246 77.6759 256.361H105.309C105.673 255.246 106.708 254.432 107.949 254.432C108.148 254.432 108.347 254.455 108.535 254.495L122.326 230.628C121.882 230.133 121.597 229.484 121.597 228.768C121.597 228.051 121.876 227.402 122.326 226.907L108.529 203.04C108.341 203.08 108.142 203.103 107.943 203.103C106.703 203.103 105.667 202.289 105.303 201.174H77.6702C77.3061 202.289 76.2707 203.103 75.0304 203.103C74.837 203.103 74.6492 203.086 74.4728 203.046L60.6819 226.901C61.1257 227.396 61.4102 228.045 61.4102 228.762C61.4102 229.479 61.1314 230.127 60.6819 230.622L74.4728 254.477C74.6549 254.455 74.8427 254.432 75.0361 254.432Z" fill="#A0BCD0" fill-opacity="0.25"/>
<path d="M171.276 161.855C171.475 161.855 171.674 161.878 171.862 161.918L185.642 138.074C185.186 137.579 184.896 136.919 184.896 136.197C184.896 134.661 186.142 133.415 187.684 133.415C188.924 133.415 189.96 134.228 190.324 135.343H217.957C218.321 134.228 219.356 133.415 220.597 133.415C222.133 133.415 223.384 134.661 223.384 136.197C223.384 136.913 223.106 137.562 222.656 138.057L236.447 161.924C236.635 161.884 236.834 161.861 237.033 161.861C238.569 161.861 239.821 163.107 239.821 164.643C239.821 166.179 238.575 167.425 237.033 167.425C236.834 167.425 236.635 167.402 236.447 167.363L222.656 191.229C223.1 191.724 223.384 192.373 223.384 193.09C223.384 194.626 222.138 195.872 220.597 195.872C219.356 195.872 218.321 195.058 217.957 193.943H190.324C189.96 195.058 188.924 195.872 187.684 195.872C186.148 195.872 184.896 194.626 184.896 193.09C184.896 192.361 185.181 191.707 185.642 191.212L171.862 167.368C171.674 167.408 171.475 167.431 171.276 167.431C169.74 167.431 168.488 166.185 168.488 164.649C168.488 163.101 169.74 161.855 171.276 161.855ZM187.684 190.296C188.924 190.296 189.96 191.11 190.324 192.225H217.957C218.321 191.11 219.356 190.296 220.597 190.296C220.796 190.296 220.995 190.319 221.183 190.359L234.974 166.492C234.53 165.997 234.245 165.349 234.245 164.632C234.245 163.915 234.524 163.266 234.974 162.771L221.177 138.905C220.989 138.945 220.79 138.967 220.591 138.967C219.351 138.967 218.315 138.154 217.951 137.039H190.318C189.954 138.154 188.919 138.967 187.678 138.967C187.485 138.967 187.297 138.95 187.121 138.91L173.33 162.766C173.774 163.261 174.058 163.909 174.058 164.626C174.058 165.343 173.779 165.992 173.33 166.486L187.121 190.342C187.308 190.319 187.491 190.296 187.684 190.296Z" fill="#A0BCD0" fill-opacity="0.25"/>
<path d="M171.276 225.991C171.475 225.991 171.674 226.014 171.862 226.054L185.642 202.21C185.186 201.715 184.896 201.055 184.896 200.332C184.896 198.796 186.142 197.55 187.684 197.55C188.924 197.55 189.96 198.364 190.324 199.479H217.957C218.321 198.364 219.356 197.55 220.597 197.55C222.133 197.55 223.384 198.796 223.384 200.332C223.384 201.049 223.106 201.698 222.656 202.193L236.447 226.059C236.635 226.02 236.834 225.997 237.033 225.997C238.569 225.997 239.821 227.243 239.821 228.779C239.821 230.315 238.575 231.561 237.033 231.561C236.834 231.561 236.635 231.538 236.447 231.498L222.656 255.365C223.1 255.86 223.384 256.509 223.384 257.225C223.384 258.762 222.138 260.007 220.597 260.007C219.356 260.007 218.321 259.194 217.957 258.079H190.324C189.96 259.194 188.924 260.007 187.684 260.007C186.148 260.007 184.896 258.762 184.896 257.225C184.896 256.497 185.181 255.843 185.642 255.348L171.862 231.504C171.674 231.544 171.475 231.567 171.276 231.567C169.74 231.567 168.488 230.321 168.488 228.785C168.488 227.237 169.74 225.991 171.276 225.991ZM187.684 254.432C188.924 254.432 189.96 255.246 190.324 256.361H217.957C218.321 255.246 219.356 254.432 220.597 254.432C220.796 254.432 220.995 254.455 221.183 254.495L234.974 230.628C234.53 230.133 234.245 229.484 234.245 228.768C234.245 228.051 234.524 227.402 234.974 226.907L221.177 203.04C220.989 203.08 220.79 203.103 220.591 203.103C219.351 203.103 218.315 202.289 217.951 201.174H190.318C189.954 202.289 188.919 203.103 187.678 203.103C187.485 203.103 187.297 203.086 187.121 203.046L173.33 226.901C173.774 227.396 174.058 228.045 174.058 228.762C174.058 229.479 173.779 230.127 173.33 230.622L187.121 254.477C187.308 254.455 187.491 254.432 187.684 254.432Z" fill="#A0BCD0" fill-opacity="0.25"/>
<path d="M2.78726 193.175C2.98639 193.175 3.18553 193.198 3.37328 193.238L17.1528 169.394C16.6976 168.899 16.4075 168.239 16.4075 167.516C16.4075 165.98 17.6534 164.734 19.1952 164.734C20.4355 164.734 21.471 165.548 21.8351 166.663H49.468C49.8322 165.548 50.8676 164.734 52.1078 164.734C53.644 164.734 54.8956 165.98 54.8956 167.516C54.8956 168.233 54.6168 168.882 54.1674 169.377L67.9583 193.243C68.146 193.203 68.3451 193.181 68.5443 193.181C70.0804 193.181 71.332 194.427 71.332 195.963C71.332 197.499 70.0861 198.745 68.5443 198.745C68.3451 198.745 68.146 198.722 67.9583 198.682L54.1674 222.549C54.6111 223.044 54.8956 223.692 54.8956 224.409C54.8956 225.945 53.6496 227.191 52.1078 227.191C50.8676 227.191 49.8322 226.378 49.468 225.263H21.8351C21.471 226.378 20.4355 227.191 19.1952 227.191C17.6591 227.191 16.4075 225.945 16.4075 224.409C16.4075 223.681 16.6919 223.027 17.1528 222.532L3.37328 198.688C3.18553 198.728 2.98639 198.751 2.78726 198.751C1.25114 198.751 -0.000480652 197.505 -0.000480652 195.968C0.00521088 194.421 1.25114 193.175 2.78726 193.175ZM19.2009 221.616C20.4412 221.616 21.4767 222.429 21.8408 223.545H49.4737C49.8378 222.429 50.8733 221.616 52.1135 221.616C52.3127 221.616 52.5118 221.639 52.6996 221.678L66.4904 197.812C66.0467 197.317 65.7622 196.668 65.7622 195.951C65.7622 195.235 66.041 194.586 66.4904 194.091L52.6939 170.224C52.5061 170.264 52.307 170.287 52.1078 170.287C50.8676 170.287 49.8322 169.473 49.468 168.358H21.8351C21.471 169.473 20.4355 170.287 19.1952 170.287C19.0018 170.287 18.8141 170.27 18.6377 170.23L4.84679 194.085C5.29055 194.58 5.57504 195.229 5.57504 195.946C5.57504 196.663 5.29624 197.311 4.84679 197.806L18.6377 221.661C18.8197 221.633 19.0075 221.616 19.2009 221.616Z" fill="#A0BCD0" fill-opacity="0.25"/>
</g>
<g opacity="0.45">
<path opacity="0.75" d="M120.408 70.0928H153.594L170.189 98.801L153.594 127.509H120.408L103.818 98.801L120.408 70.0928Z" fill="#BBCBD8" fill-opacity="0.3"/>
<path opacity="0.45" d="M174.787 39.4673H207.972L224.562 68.1755L207.972 96.8837H174.787L158.191 68.1755L174.787 39.4673Z" fill="#BBCBD8" fill-opacity="0.3"/>
<path opacity="0.45" d="M120.408 132.926H153.594L170.189 161.634L153.594 190.342H120.408L103.818 161.634L120.408 132.926Z" fill="#BBCBD8" fill-opacity="0.3"/>
<path opacity="0.25" d="M65.4324 101.321H98.6181L115.214 130.03L98.6181 158.738H65.4324L48.8424 130.03L65.4324 101.321Z" fill="#BBCBD8" fill-opacity="0.3"/>
<path opacity="0.25" d="M174.787 101.321H207.972L224.562 130.03L207.972 158.738H174.787L158.191 130.03L174.787 101.321Z" fill="#BBCBD8" fill-opacity="0.3"/>
</g>
<path d="M114.116 66.9977C114.315 66.9977 114.514 67.0205 114.702 67.0603L128.481 43.2164C128.026 42.7215 127.736 42.0615 127.736 41.3389C127.736 39.8028 128.982 38.5569 130.524 38.5569C131.764 38.5569 132.8 39.3704 133.164 40.4856H160.797C161.161 39.3704 162.196 38.5569 163.436 38.5569C164.973 38.5569 166.224 39.8028 166.224 41.3389C166.224 42.0558 165.945 42.7044 165.496 43.1994L179.287 67.066C179.475 67.0262 179.674 67.0034 179.873 67.0034C181.409 67.0034 182.661 68.2494 182.661 69.7855C182.661 71.3216 181.415 72.5676 179.873 72.5676C179.674 72.5676 179.475 72.5448 179.287 72.505L165.496 96.3716C165.94 96.8666 166.224 97.5152 166.224 98.232C166.224 99.7681 164.978 101.014 163.436 101.014C162.196 101.014 161.161 100.201 160.797 99.0854H133.164C132.8 100.201 131.764 101.014 130.524 101.014C128.988 101.014 127.736 99.7681 127.736 98.232C127.736 97.5038 128.021 96.8495 128.481 96.3545L114.702 72.5107C114.514 72.5505 114.315 72.5732 114.116 72.5732C112.58 72.5732 111.328 71.3273 111.328 69.7912C111.328 68.2437 112.574 66.9977 114.116 66.9977ZM130.524 95.4442C131.764 95.4442 132.8 96.2578 133.164 97.3729H160.797C161.161 96.2578 162.196 95.4442 163.436 95.4442C163.636 95.4442 163.835 95.467 164.022 95.5068L177.813 71.6402C177.37 71.1452 177.085 70.4966 177.085 69.7798C177.085 69.0629 177.364 68.4144 177.813 67.9194L164.017 44.0528C163.829 44.0926 163.63 44.1153 163.431 44.1153C162.191 44.1153 161.155 43.3018 160.791 42.1867H133.158C132.794 43.3018 131.758 44.1153 130.518 44.1153C130.325 44.1153 130.137 44.0983 129.961 44.0584L116.17 67.9137C116.614 68.4087 116.898 69.0572 116.898 69.7741C116.898 70.491 116.619 71.1395 116.17 71.6345L129.961 95.4898C130.143 95.4613 130.33 95.4442 130.524 95.4442Z" fill="#585858" fill-opacity="0.04"/>
<path d="M58.7873 33.9941C58.9864 33.9941 59.1855 34.0168 59.3733 34.0566L73.1528 10.2128C72.6976 9.7178 72.4075 9.05784 72.4075 8.3353C72.4075 6.79919 73.6534 5.55322 75.1952 5.55322C76.4355 5.55322 77.471 6.3668 77.8351 7.48191H105.468C105.832 6.3668 106.868 5.55322 108.108 5.55322C109.644 5.55322 110.896 6.79919 110.896 8.3353C110.896 9.05215 110.617 9.70073 110.167 10.1957L123.958 34.0623C124.146 34.0225 124.345 33.9998 124.544 33.9998C126.08 33.9998 127.332 35.2457 127.332 36.7818C127.332 38.3179 126.086 39.5639 124.544 39.5639C124.345 39.5639 124.146 39.5411 123.958 39.5013L110.167 63.3679C110.611 63.8629 110.896 64.5115 110.896 65.2284C110.896 66.7645 109.65 68.0104 108.108 68.0104C106.868 68.0104 105.832 67.1969 105.468 66.0818H77.8351C77.471 67.1969 76.4355 68.0104 75.1952 68.0104C73.6591 68.0104 72.4075 66.7645 72.4075 65.2284C72.4075 64.5001 72.692 63.8458 73.1528 63.3509L59.3733 39.507C59.1855 39.5468 58.9864 39.5696 58.7873 39.5696C57.2512 39.5696 55.9995 38.3236 55.9995 36.7875C56.0052 35.24 57.2512 33.9941 58.7873 33.9941ZM75.2009 62.4406C76.4412 62.4406 77.4767 63.2542 77.8408 64.3693H105.474C105.838 63.2542 106.873 62.4406 108.114 62.4406C108.313 62.4406 108.512 62.4634 108.7 62.5032L122.496 38.6365C122.052 38.1416 121.768 37.493 121.768 36.7761C121.768 36.0593 122.047 35.4107 122.496 34.9157L108.7 11.0491C108.512 11.0889 108.313 11.1117 108.114 11.1117C106.873 11.1117 105.838 10.2981 105.474 9.183H77.8408C77.4767 10.2981 76.4412 11.1117 75.2009 11.1117C75.0075 11.1117 74.8198 11.0946 74.6434 11.0548L60.8525 34.91C61.2962 35.405 61.5807 36.0536 61.5807 36.7704C61.5807 37.4873 61.3019 38.1359 60.8525 38.6309L74.6434 62.4861C74.8198 62.4577 75.0075 62.4406 75.2009 62.4406Z" fill="#585858" fill-opacity="0.04"/>
<path d="M115.328 257.913C115.527 257.913 115.726 257.936 115.914 257.976L129.693 234.132C129.238 233.637 128.948 232.977 128.948 232.255C128.948 230.719 130.194 229.473 131.736 229.473C132.976 229.473 134.011 230.286 134.376 231.401H162.009C162.373 230.286 163.408 229.473 164.648 229.473C166.184 229.473 167.436 230.719 167.436 232.255C167.436 232.972 167.157 233.62 166.708 234.115L180.499 257.982C180.687 257.942 180.886 257.919 181.085 257.919C182.621 257.919 183.873 259.165 183.873 260.701C183.873 262.237 182.627 263.483 181.085 263.483C180.886 263.483 180.687 263.461 180.499 263.421L166.708 287.287C167.152 287.782 167.436 288.431 167.436 289.148C167.436 290.684 166.19 291.93 164.648 291.93C163.408 291.93 162.373 291.116 162.009 290.001H134.376C134.011 291.116 132.976 291.93 131.736 291.93C130.2 291.93 128.948 290.684 128.948 289.148C128.948 288.42 129.232 287.765 129.693 287.27L115.914 263.426C115.726 263.466 115.527 263.489 115.328 263.489C113.792 263.489 112.54 262.243 112.54 260.707C112.546 259.159 113.792 257.913 115.328 257.913ZM131.736 286.354C132.976 286.354 134.011 287.168 134.376 288.283H162.009C162.373 287.168 163.408 286.354 164.648 286.354C164.847 286.354 165.047 286.377 165.234 286.417L179.025 262.55C178.581 262.055 178.297 261.407 178.297 260.69C178.297 259.973 178.576 259.324 179.025 258.829L165.229 234.963C165.041 235.003 164.842 235.025 164.643 235.025C163.402 235.025 162.367 234.212 162.003 233.097H134.37C134.006 234.212 132.97 235.025 131.73 235.025C131.537 235.025 131.349 235.008 131.173 234.969L117.382 258.824C117.825 259.319 118.11 259.967 118.11 260.684C118.11 261.401 117.831 262.05 117.382 262.545L131.173 286.4C131.36 286.377 131.548 286.354 131.736 286.354Z" fill="#585858" fill-opacity="0.04"/>
<path opacity="0.45" d="M63.2478 123.913H75.8894L75.9065 122.212V111.266H88.1442V123.913H100.809V136.14H88.1442V148.787H75.9065V136.14H63.2478V123.913Z" fill="#939393" fill-opacity="0.25"/>
<path opacity="0.3" d="M128.208 189.75H140.85L140.873 188.049V177.103H153.11V189.75H165.769V201.977H153.11V214.624H140.873V201.977H128.208V189.75Z" fill="#939393" fill-opacity="0.25"/>
</svg>
