<svg width="19" height="22" viewBox="0 0 19 22" fill="none" xmlns="http://www.w3.org/2000/svg">
<path d="M17.4688 8.98438C16.5938 10.2969 16.1094 11.7656 16.0156 13.3906C15.8594 15.3281 15.5781 17.25 15.1719 19.1562L14.8438 20.5156C14.6875 21.1406 14.2969 21.4688 13.6719 21.5C13.0469 21.4688 12.6562 21.1562 12.5 20.5625L11.0938 14.8906C10.8438 14.0781 10.3125 13.6406 9.5 13.5781C8.6875 13.6406 8.15625 14.0781 7.90625 14.8906L6.5 20.5625C6.3125 21.1562 5.92188 21.4688 5.32812 21.5C4.70312 21.4688 4.3125 21.1406 4.15625 20.5156L3.82812 19.1562C3.42188 17.25 3.15625 15.3281 3.03125 13.3906C2.90625 11.7656 2.40625 10.2969 1.53125 8.98438C0.59375 7.70313 0.296875 6.1875 0.640625 4.4375C0.890625 3.5 1.34375 2.6875 2 2C2.65625 1.3125 3.4375 0.84375 4.34375 0.59375C5.3125 0.40625 6.21875 0.546875 7.0625 1.01562L11.0938 3.6875C11.4375 3.875 11.7344 3.8125 11.9844 3.5C12.1406 3.125 12.0781 2.8125 11.7969 2.5625L10.625 1.8125C10.6875 1.8125 10.7344 1.79688 10.7656 1.76562C10.8594 1.73437 10.9531 1.6875 11.0469 1.625C11.5781 1.1875 12.1562 0.875 12.7812 0.6875C13.375 0.46875 14 0.4375 14.6562 0.59375C15.5625 0.84375 16.3438 1.3125 17 2C17.6562 2.6875 18.1094 3.5 18.3594 4.4375C18.7031 6.21875 18.4062 7.73437 17.4688 8.98438Z" fill="#04CE78"/>
</svg>
