<svg width="70" height="70" viewBox="0 0 70 70" fill="none" xmlns="http://www.w3.org/2000/svg">
<path d="M62.3442 32.8125H7.65674C5.24049 32.8125 3.28174 34.7713 3.28174 37.1875V51.4062C3.28174 53.8225 5.24049 55.7812 7.65674 55.7812H62.3442C64.7605 55.7812 66.7192 53.8225 66.7192 51.4062V37.1875C66.7192 34.7713 64.7605 32.8125 62.3442 32.8125Z" fill="#04CE78"/>
<path d="M7.65641 32.8125C6.8249 32.8139 6.0113 33.0542 5.3125 33.5048C5.61813 34.0666 5.8501 34.6655 6.00266 35.2866C6.11213 35.8897 6.16849 36.5012 6.17109 37.1142C6.17399 38.0874 6.28663 39.0571 6.50688 40.005C7.41141 43.4678 9.65797 45.5361 12.5138 45.5361C17.1184 45.5536 18.42 41.1348 19.0916 38.4081C19.7609 41.1348 21.0658 45.5547 25.6694 45.5361C28.5273 45.5361 30.7728 43.4678 31.6763 40.005C31.8973 39.0557 32.0107 38.0845 32.0142 37.1098C32.0156 36.4984 32.0712 35.8882 32.1805 35.2866C32.4082 34.4109 32.7714 33.5761 33.2567 32.8125H7.65641Z" fill="#01BDB2"/>
<path d="M19.0917 18.5642C11.1565 9.40622 0.612774 17.9375 3.89731 26.6197C4.99106 29.5432 7.44652 31.7242 8.13777 34.8075C8.4834 36.3486 8.22309 37.9214 8.6234 39.4526C9.13418 41.405 10.3121 43.4022 12.6068 43.3475C17.7704 43.225 16.2829 34.3875 19.0917 34.0604C21.9015 34.3886 20.414 43.225 25.5776 43.3475C27.8745 43.4022 29.0503 41.405 29.5611 39.4526C29.9603 37.9214 29.7011 36.3486 30.0467 34.8075C30.7379 31.7242 33.1901 29.5432 34.2871 26.6197C37.5706 17.9375 27.0236 9.40622 19.0917 18.5642Z" fill="#E4F4FD"/>
<path d="M62.344 32.8125H36.7437C37.2287 33.5758 37.5914 34.4102 37.8188 35.2855C37.9289 35.8874 37.9849 36.4979 37.9861 37.1098C37.9898 38.0841 38.1028 39.0549 38.323 40.0039C39.2276 43.4678 41.473 45.5361 44.331 45.5361C48.9357 45.5536 50.2372 41.1348 50.9088 38.4081C51.5782 41.1348 52.8776 45.5547 57.4866 45.5361C60.3851 45.5361 62.5747 43.5203 63.4946 40.0039C63.714 39.0563 63.8263 38.0869 63.8293 37.1142C63.8319 36.5012 63.8882 35.8897 63.9977 35.2866C64.1503 34.6655 64.3822 34.0666 64.6879 33.5048C63.9891 33.0542 63.1755 32.8139 62.344 32.8125Z" fill="#01BDB2"/>
<path d="M50.9087 18.5642C42.9768 9.40622 32.4298 17.9375 35.7132 26.6197C36.8069 29.5432 39.2624 31.7242 39.9537 34.8075C40.2993 36.3486 40.0401 37.9214 40.4393 39.4526C40.9501 41.405 42.128 43.4022 44.4227 43.3475C49.5863 43.225 48.0988 34.3875 50.9087 34.0604C53.7174 34.3886 52.2299 43.225 57.3935 43.3475C59.6904 43.4022 60.8662 41.405 61.3769 39.4526C61.7773 37.9214 61.517 36.3486 61.8626 34.8075C62.5538 31.7242 65.006 29.5432 66.103 26.6197C69.3876 17.9375 58.8438 9.40622 50.9087 18.5642Z" fill="#E4F4FD"/>
<path d="M21.8755 25.1562H16.4067C15.8027 25.1562 15.313 25.6459 15.313 26.25V28.4375C15.313 29.0416 15.8027 29.5312 16.4067 29.5312H21.8755C22.4795 29.5312 22.9692 29.0416 22.9692 28.4375V26.25C22.9692 25.6459 22.4795 25.1562 21.8755 25.1562Z" fill="#00B6A7"/>
<path d="M53.5942 25.1562H48.1255C47.5214 25.1562 47.0317 25.6459 47.0317 26.25V28.4375C47.0317 29.0416 47.5214 29.5312 48.1255 29.5312H53.5942C54.1983 29.5312 54.688 29.0416 54.688 28.4375V26.25C54.688 25.6459 54.1983 25.1562 53.5942 25.1562Z" fill="#00B6A7"/>
<path d="M4.94497 30.7781C5.23481 31.2211 5.51044 31.6531 5.77403 32.0906C4.72556 32.4696 3.81906 33.162 3.17749 34.0738C2.53592 34.9855 2.19034 36.0726 2.18763 37.1875V51.4062C2.18936 52.8561 2.76609 54.2461 3.7913 55.2713C4.81652 56.2965 6.20651 56.8732 7.65638 56.875H62.3439C63.7937 56.8732 65.1837 56.2965 66.2089 55.2713C67.2342 54.2461 67.8109 52.8561 67.8126 51.4062V37.1875C67.8114 36.0652 67.4622 34.971 66.813 34.0556C66.1638 33.1402 65.2466 32.4487 64.1879 32.0764C64.4483 31.6454 64.7206 31.2156 65.0061 30.7781C65.8334 29.6012 66.5281 28.3364 67.0776 27.0068C67.937 24.8152 67.9969 22.3908 67.2466 20.1594C66.4963 17.928 64.9839 16.0322 62.975 14.805C59.884 12.962 55.1722 12.6503 50.8595 16.9586C46.5468 12.6503 41.8339 12.9642 38.744 14.805C37.1179 15.7946 35.81 17.2303 34.9761 18.9415C34.1415 17.2307 32.8338 15.7952 31.2081 14.805C28.1172 12.9631 23.4042 12.6503 19.0915 16.9586C14.7789 12.6492 10.0659 12.9653 6.97606 14.805C4.96748 16.0318 3.45523 17.9269 2.70478 20.1576C1.95433 22.3884 2.01364 24.8122 2.87231 27.0036C3.42188 28.3343 4.117 29.6002 4.94497 30.7781ZM65.6251 37.1875V51.4062C65.6251 52.2765 65.2794 53.1111 64.6641 53.7264C64.0487 54.3418 63.2141 54.6875 62.3439 54.6875H7.65638C6.78613 54.6875 5.95154 54.3418 5.33618 53.7264C4.72083 53.1111 4.37513 52.2765 4.37513 51.4062V37.1875C4.37749 36.4768 4.61174 35.7864 5.04229 35.221C5.47284 34.6556 6.07616 34.2462 6.7606 34.055C6.88691 34.378 6.99034 34.7095 7.07013 35.047C7.19633 35.7167 7.26113 36.3966 7.26372 37.0781C7.26427 37.9714 7.36516 38.8618 7.5645 39.7326C8.34981 42.735 10.1501 44.4434 12.5137 44.4467C16.3801 44.4467 17.3951 40.7104 18.07 37.9936C18.3095 37.0497 18.5829 35.2111 19.0915 35.21C19.6001 35.2089 19.8736 37.0508 20.1142 37.9936C20.789 40.7093 21.804 44.4467 25.6693 44.4467C28.0351 44.4467 29.8343 42.735 30.6186 39.7326C30.8185 38.8608 30.9202 37.9693 30.9215 37.0748C30.9236 36.3959 30.9877 35.7186 31.1129 35.0514C31.2023 34.6607 31.3226 34.2778 31.4728 33.9062H38.4783C38.6282 34.2764 38.7485 34.6578 38.8381 35.047C38.964 35.7149 39.0288 36.3929 39.0317 37.0726C39.0312 37.9664 39.1321 38.8573 39.3325 39.7283C40.1178 42.7306 41.9181 44.439 44.2817 44.4423C48.1481 44.4423 49.162 40.7061 49.8368 37.9892C50.0775 37.0464 50.3498 35.2056 50.8595 35.2056C51.3692 35.2056 51.6415 37.0464 51.8822 37.9892C52.557 40.705 53.5709 44.4423 57.4373 44.4423C59.8009 44.4423 61.6012 42.7306 62.3865 39.7283C62.5859 38.8575 62.6868 37.967 62.6873 37.0737C62.6902 36.3937 62.755 35.7153 62.8809 35.047C62.9612 34.7036 63.0665 34.3666 63.1959 34.0386C63.8918 34.2213 64.5076 34.6294 64.9471 35.1991C65.3866 35.7687 65.625 36.468 65.6251 37.1875ZM21.8751 30.625C22.4553 30.625 23.0117 30.3945 23.4219 29.9843C23.8322 29.574 24.0626 29.0176 24.0626 28.4375H32.1334C31.8993 28.817 31.6576 29.1965 31.405 29.5837C30.3008 31.0839 29.4804 32.7735 28.9845 34.569C28.8272 35.3671 28.7452 36.1783 28.7395 36.9917C28.7426 37.7272 28.6649 38.4607 28.5076 39.1792C28.1357 40.6011 27.3603 42.3051 25.6081 42.2581C23.6011 42.2034 22.9711 40.3254 22.2393 37.4543C21.6925 35.3248 21.1303 32.97 19.097 32.97C17.0637 32.97 16.4972 35.3237 15.9558 37.4543C15.2142 40.3539 14.5864 42.2526 12.5247 42.2592C10.8468 42.2592 10.055 40.589 9.68747 39.1792C9.53043 38.4633 9.45267 37.7323 9.4556 36.9993C9.44953 36.1844 9.36714 35.3719 9.2095 34.5723C8.7115 32.7751 7.88855 31.0844 6.78138 29.5837C6.52981 29.1965 6.287 28.8181 6.05294 28.4375H14.2189C14.2189 29.0176 14.4493 29.574 14.8596 29.9843C15.2698 30.3945 15.8262 30.625 16.4064 30.625H21.8751ZM16.4064 28.4375V26.25H21.8751V28.4375H16.4064ZM53.5939 30.625C54.174 30.625 54.7304 30.3945 55.1407 29.9843C55.5509 29.574 55.7814 29.0176 55.7814 28.4375H63.9014C63.6673 28.817 63.4256 29.1965 63.1729 29.5837C62.067 31.0832 61.2448 32.7725 60.747 34.5679C60.5894 35.3675 60.507 36.1801 60.5009 36.995C60.5036 37.7278 60.4263 38.4588 60.2701 39.1748C59.8972 40.5967 59.0758 42.3303 57.3706 42.2537C55.3636 42.2067 54.7336 40.3211 54.0018 37.45C53.455 35.3204 52.8928 32.9656 50.8595 32.9656C48.8262 32.9656 48.2597 35.3194 47.7172 37.45C46.9854 40.3211 46.3554 42.2067 44.3484 42.2537C42.6334 42.3358 41.8218 40.6022 41.4489 39.1748C41.2924 38.4584 41.2147 37.7271 41.217 36.9939C41.2119 36.1793 41.1298 35.3671 40.972 34.5679C40.4742 32.7725 39.652 31.0832 38.5461 29.5837C38.2945 29.1965 38.0517 28.8181 37.8176 28.4375H45.9376C45.9376 29.0176 46.1681 29.574 46.5783 29.9843C46.9886 30.3945 47.545 30.625 48.1251 30.625H53.5939ZM48.1251 28.4375V26.25H53.5939V28.4375H48.1251ZM39.8629 16.684C43.1343 14.735 46.9373 15.6997 50.0348 19.2795C50.3829 20.2037 51.0222 20.9896 51.8562 21.5186C52.6902 22.0476 53.6737 22.2909 54.6581 22.2118C54.9482 22.2118 55.2264 22.0966 55.4315 21.8915C55.6366 21.6864 55.7518 21.4082 55.7518 21.1181C55.7518 20.828 55.6366 20.5498 55.4315 20.3447C55.2264 20.1396 54.9482 20.0243 54.6581 20.0243C54.1627 20.1021 53.6554 20.016 53.2133 19.7791C52.7713 19.5422 52.4187 19.1675 52.2092 18.7118C55.2039 15.6067 58.7717 14.8411 61.8583 16.6829C63.4274 17.6501 64.6052 19.1397 65.1844 20.8896C65.7636 22.6395 65.707 24.5376 65.0247 26.25H55.7814C55.7814 25.6698 55.5509 25.1134 55.1407 24.7032C54.7304 24.2929 54.174 24.0625 53.5939 24.0625H48.1251C47.545 24.0625 46.9886 24.2929 46.5783 24.7032C46.1681 25.1134 45.9376 25.6698 45.9376 26.25H36.6954C36.0128 24.5377 35.9562 22.6395 36.5356 20.8897C37.1151 19.1398 38.2933 17.6505 39.8629 16.684ZM35.3009 28.4375C35.7384 29.2578 36.2251 30.0289 36.7129 30.7781C36.9197 31.0953 37.1209 31.407 37.3167 31.7187H32.6343C32.8301 31.407 33.0314 31.0953 33.2381 30.7781C33.7259 30.0289 34.217 29.2578 34.6501 28.4375H35.3009ZM8.09388 16.684C11.3358 14.7514 15.0939 15.6909 18.1772 19.1865C18.5107 20.1348 19.1489 20.9459 19.992 21.4932C20.8351 22.0405 21.8357 22.2932 22.8376 22.2118C23.1277 22.2118 23.4059 22.0966 23.611 21.8915C23.8161 21.6864 23.9314 21.4082 23.9314 21.1181C23.9314 20.828 23.8161 20.5498 23.611 20.3447C23.4059 20.1396 23.1277 20.0243 22.8376 20.0243C22.3489 20.1014 21.8483 20.0186 21.4103 19.7882C20.9724 19.5579 20.6206 19.1922 20.4073 18.7458C23.4075 15.6154 26.9829 14.8345 30.087 16.684C31.6567 17.6505 32.8351 19.1397 33.4149 20.8894C33.9947 22.6392 33.9387 24.5374 33.2567 26.25H24.0626C24.0626 25.6698 23.8322 25.1134 23.4219 24.7032C23.0117 24.2929 22.4553 24.0625 21.8751 24.0625H16.4064C15.8262 24.0625 15.2698 24.2929 14.8596 24.7032C14.4493 25.1134 14.2189 25.6698 14.2189 26.25H4.922C4.23977 24.5372 4.18385 22.6387 4.76409 20.8888C5.34433 19.1389 6.5235 17.6498 8.09388 16.684Z" fill="#1E120B"/>
</svg>
