<svg width="60" height="60" viewBox="0 0 60 60" fill="none" xmlns="http://www.w3.org/2000/svg">
<path d="M16.8674 14.3862V21.3502H15.1992V33.7005L20.3216 34.7696L24.2544 15.9281L16.8674 14.3862Z" fill="#04CE78"/>
<path d="M16.6735 28.7914C17.1407 23.8071 18.1954 19.1325 19.691 14.9758L15.734 14.1499L11.8013 32.9914L16.4114 33.9537C16.4238 32.2636 16.5096 30.5394 16.6735 28.7914Z" fill="#1F5FFF"/>
<path d="M42.2412 23.688H50.052V38.6929H42.2412V23.688Z" fill="#04CE78"/>
<path d="M45.498 29.1799C45.498 26.7599 47.4597 24.7982 49.8796 24.7982H50.052V23.688H42.2412V38.6929H45.498V29.1799Z" fill="#1F5FFF"/>
<path d="M46.1467 59.1212C42.7059 59.1212 39.9711 56.2312 40.1607 52.7957L40.9039 39.3321C40.9589 38.3339 41.7844 37.5527 42.7841 37.5527H49.5092C50.5089 37.5527 51.3344 38.3339 51.3895 39.3321L52.1327 52.7957C52.3223 56.2312 49.5876 59.1212 46.1467 59.1212Z" fill="#6A829A"/>
<path d="M45.498 55.6185V37.5527H42.7841C41.7844 37.5527 40.9589 38.3339 40.9039 39.3321L40.1607 52.7957C39.9711 56.2312 42.7057 59.1212 46.1466 59.1212C46.486 59.1212 46.818 59.092 47.1415 59.0381C46.1399 58.2352 45.498 57.0021 45.498 55.6185Z" fill="#516980"/>
<path d="M47.2436 0.925293C53.823 1.4817 58.9895 6.99842 58.9895 13.7218C58.9895 20.0728 54.3796 25.3471 48.3233 26.3809L44.0482 25.8981L38.5518 13.6531L43.0012 2.08018L47.2436 0.925293Z" fill="#6A829A"/>
<path d="M42.2411 13.1479C42.2411 8.38699 44.15 4.0725 47.2432 0.926016C46.8815 0.89543 46.516 0.878906 46.1464 0.878906C39.0535 0.878906 33.3037 6.62883 33.3037 13.7216C33.3037 20.8145 39.0536 26.5643 46.1464 26.5643C46.8883 26.5643 47.6154 26.5005 48.3228 26.3798C44.5999 23.182 42.2411 18.4406 42.2411 13.1479Z" fill="#516980"/>
<path d="M43.7467 6.00498C44.5052 5.7685 45.3115 5.64111 46.1469 5.64111C50.6024 5.64111 54.2272 9.26596 54.2272 13.7214C54.2272 18.1769 50.6024 21.8019 46.1469 21.8019C45.5594 21.8019 44.9865 21.7388 44.4343 21.6193L42.0293 20.0648L39.3745 13.7215L41.0571 8.39889L43.7467 6.00498Z" fill="#04CE78"/>
<path d="M42.2413 13.148C42.2413 10.6003 42.788 8.18033 43.7702 5.99854C40.471 7.01584 38.0664 10.0929 38.0664 13.7217C38.0664 17.5897 40.799 20.83 44.4345 21.6178C43.038 19.1099 42.2413 16.2222 42.2413 13.148Z" fill="#1F5FFF"/>
<path d="M24.8772 4.91064C26.7426 5.31295 28.0146 7.11975 27.6978 9.05756L26.5718 15.9463C26.2288 18.0444 24.1691 19.4039 22.105 18.8946L18.6925 18.0526L17.0703 15.9587L17.405 10.5821L22.1793 5.64107L24.8772 4.91064Z" fill="#6A829A"/>
<path d="M24.8768 4.91202C24.7224 4.87874 24.5643 4.85378 24.4023 4.84042L16.817 4.21605C14.9248 4.0603 13.2303 5.3844 12.9241 7.25812L11.9939 12.9479C11.6876 14.8217 12.8723 16.6165 14.7156 17.0713L18.6925 18.0526C20.1818 12.923 22.3207 8.43198 24.8768 4.91202Z" fill="#516980"/>
<path d="M16.365 59.121C12.9241 59.121 10.1893 56.231 10.3789 52.7954L11.1221 32.2301C11.1772 31.2319 12.0027 30.4507 13.0024 30.4507H19.7274C20.7272 30.4507 21.5526 31.2319 21.6077 32.2301L22.3509 52.7954C22.5406 56.231 19.8058 59.121 16.365 59.121Z" fill="#6A829A"/>
<path d="M15.5485 55.6182V33.2518C15.5485 32.1865 15.929 31.2102 16.5612 30.4507H13.0024C12.0027 30.4507 11.1772 31.2319 11.1221 32.2301L10.3789 52.7954C10.1893 56.231 12.924 59.121 16.3649 59.121C16.6551 59.121 16.9399 59.0987 17.2188 59.059C16.2021 58.2566 15.5485 57.0142 15.5485 55.6182Z" fill="#516980"/>
<path d="M3.5248 11.1556C4.91274 11.1556 6.03789 10.0304 6.03789 8.64248C6.03789 7.25454 4.91274 6.12939 3.5248 6.12939C2.13687 6.12939 1.01172 7.25454 1.01172 8.64248C1.01172 10.0304 2.13687 11.1556 3.5248 11.1556Z" fill="#04CE78"/>
<path d="M59.868 13.7216C59.868 10.9266 59.0327 8.23711 57.4523 5.94387C57.1768 5.54414 56.6298 5.44348 56.2298 5.71887C55.8301 5.99437 55.7293 6.54164 56.0048 6.94137C57.3822 8.94 58.1102 11.2846 58.1102 13.7216C58.1102 20.3184 52.7432 25.6854 46.1463 25.6854C39.5495 25.6854 34.1825 20.3184 34.1825 13.7216C34.1826 7.12477 39.5496 1.75781 46.1464 1.75781C48.7734 1.75781 51.2661 2.59277 53.3553 4.17258C53.7424 4.46543 54.2936 4.38891 54.5865 4.00172C54.8792 3.61453 54.8027 3.06328 54.4155 2.77055C52.0186 0.958008 49.1592 0 46.1464 0C38.5802 0 32.4248 6.15551 32.4248 13.7216C32.4248 19.6059 36.1483 24.6364 41.3627 26.5823V37.0682C40.6028 37.5253 40.0783 38.338 40.0262 39.2836L39.283 52.7471C39.1779 54.6524 39.8421 56.4649 41.1537 57.8508C42.4652 59.2368 44.2384 60 46.1464 60C48.0546 60 49.8277 59.2368 51.1392 57.8508C52.4507 56.4648 53.1151 54.6524 53.01 52.747L52.2668 39.2835C52.2146 38.3382 51.6903 37.5259 50.9311 37.0686V26.5819C56.145 24.6359 59.868 19.6057 59.868 13.7216ZM49.8625 56.6426C48.8864 57.6741 47.5666 58.2422 46.1464 58.2422C44.7263 58.2422 43.4066 57.6741 42.4304 56.6426C41.4542 55.6111 40.9597 54.262 41.038 52.8439L41.7812 39.3804C41.8106 38.8482 42.251 38.4315 42.7839 38.4315H49.5091C50.042 38.4315 50.4825 38.8484 50.5119 39.3805L51.2551 52.8441C51.3331 54.262 50.8387 55.611 49.8625 56.6426ZM49.1732 36.6737H43.1205V27.1063C44.0945 27.3264 45.107 27.4432 46.1464 27.4432C47.1862 27.4432 48.1991 27.3262 49.1732 27.1062V36.6737Z" fill="black"/>
<path d="M46.1462 4.76221C41.2061 4.76221 37.187 8.78127 37.187 13.7214C37.187 18.6616 41.2061 22.6808 46.1462 22.6808C51.0864 22.6808 55.1056 18.6616 55.1056 13.7214C55.1056 8.78127 51.0864 4.76221 46.1462 4.76221ZM46.1462 20.9229C42.1753 20.9229 38.9448 17.6923 38.9448 13.7214C38.9448 9.75053 42.1753 6.52002 46.1462 6.52002C50.1172 6.52002 53.3478 9.75053 53.3478 13.7214C53.3478 17.6923 50.1171 20.9229 46.1462 20.9229Z" fill="black"/>
<path d="M46.1465 8.62939C45.661 8.62939 45.2676 9.02291 45.2676 9.5083C45.2676 9.99369 45.661 10.3872 46.1465 10.3872C47.985 10.3872 49.4808 11.883 49.4808 13.7214C49.4808 14.2068 49.8742 14.6003 50.3597 14.6003C50.8452 14.6003 51.2386 14.2068 51.2386 13.7214C51.2386 10.9136 48.9543 8.62939 46.1465 8.62939Z" fill="black"/>
<path d="M24.4744 3.96479L16.889 3.3403C14.5578 3.14835 12.4339 4.80702 12.0566 7.11655L11.7334 9.09409L6.89927 8.30389C6.74927 6.81467 5.61759 5.54799 4.07177 5.29534C2.22642 4.9937 0.478806 6.24995 0.177048 8.09577C-0.124592 9.94147 1.13166 11.6887 2.97736 11.9904C3.16193 12.0205 3.34533 12.0351 3.5265 12.0351C4.86338 12.0351 6.07299 11.2399 6.61591 10.0387L11.4499 10.8289L11.1267 12.8064C10.7735 14.9666 12.0491 17.0728 14.0747 17.795L11.5268 29.9998C10.7962 30.4624 10.2954 31.2589 10.2445 32.1819C10.2442 32.1874 10.2439 32.193 10.2437 32.1985L9.92552 41.0028C9.90806 41.488 10.287 41.8955 10.7722 41.9129C11.2542 41.9303 11.6646 41.5514 11.6823 41.0664L12.0001 32.2715C12.0329 31.7428 12.4718 31.3297 13.0024 31.3297H19.7276C20.2579 31.3297 20.6968 31.7428 20.7299 32.2715L21.4727 52.8273C21.4729 52.8328 21.4732 52.8384 21.4735 52.844C21.5518 54.262 21.0573 55.6111 20.0811 56.6427C19.1049 57.6742 17.7852 58.2423 16.365 58.2423C14.9449 58.2423 13.6251 57.6742 12.649 56.6427C11.6728 55.6112 11.1783 54.2621 11.2565 52.844C11.2569 52.8384 11.2571 52.8329 11.2574 52.8273L11.533 45.2026C11.5504 44.7174 11.1715 44.31 10.6863 44.2925C10.2045 44.2737 9.79392 44.6539 9.77623 45.1391L9.50095 52.7558C9.3983 54.6579 10.0626 56.467 11.3722 57.8509C12.6836 59.2369 14.4568 60.0001 16.3649 60.0001C18.273 60.0001 20.0462 59.2369 21.3576 57.8509C22.6672 56.467 23.3315 54.6578 23.2289 52.7558L22.486 32.1987C22.4858 32.1931 22.4856 32.1875 22.4852 32.1819C22.4577 31.6822 22.2981 31.2197 22.0418 30.827L24.3746 19.6548C24.7578 19.5305 25.1265 19.3573 25.4678 19.132C26.5175 18.4391 27.236 17.3298 27.4388 16.0883L28.5649 9.19956C28.7678 7.95819 28.44 6.67768 27.6654 5.68663C26.8911 4.69557 25.7279 4.06792 24.4744 3.96479ZM5.13736 8.90635C4.99193 9.79569 4.14888 10.4012 3.26084 10.2555C2.37162 10.1102 1.76646 9.26846 1.91166 8.37924C2.04256 7.57874 2.73748 7.0085 3.52345 7.0085C3.61076 7.0085 3.69924 7.01553 3.78806 7.03006C4.67752 7.17549 5.28267 8.01725 5.13736 8.90635ZM13.4119 29.5721L15.7776 18.2389L21.8944 19.7483C22.1067 19.8007 22.3215 19.8353 22.537 19.8561L20.486 29.6784C20.2446 29.6095 19.9903 29.5721 19.7276 29.5721H13.4119ZM26.8304 8.91608L25.7044 15.8048C25.5785 16.5746 25.1505 17.2353 24.4997 17.6651C23.8485 18.0948 23.0726 18.2285 22.3155 18.0416L14.9263 16.2183C13.5375 15.8756 12.6306 14.5016 12.8613 13.0899L13.7914 7.40014C14.01 6.06303 15.1855 5.08299 16.5206 5.08299C16.5949 5.08299 16.6698 5.08604 16.745 5.09225L24.3303 5.71674C25.1078 5.78073 25.8003 6.15456 26.2808 6.76909C26.7609 7.38374 26.9562 8.14628 26.8304 8.91608Z" fill="black"/>
</svg>
